OctagonVariable-NORMAL.ufo
<glyph name="quotedbl" format="2">
  <advance width="222"/>
  <unicode hex="0022"/>
  <outline>
    <contour>
      <point x="30" y="403" type="line"/>
      <point x="102" y="403" type="line"/>
      <point x="102" y="416" type="line"/>
      <point x="30" y="416" type="line"/>
    </contour>
    <contour>
      <point x="41" y="403" type="line"/>
      <point x="68" y="498" type="line"/>
      <point x="59" y="514" type="line"/>
      <point x="30" y="414" type="line"/>
    </contour>
    <contour>
      <point x="90" y="403" type="line"/>
      <point x="102" y="414" type="line"/>
      <point x="72" y="515" type="line"/>
      <point x="63" y="499" type="line"/>
    </contour>
    <contour>
      <point x="30" y="403" type="line"/>
      <point x="44" y="403" type="line"/>
      <point x="44" y="615" type="line"/>
      <point x="30" y="615" type="line"/>
    </contour>
    <contour>
      <point x="59" y="502" type="line"/>
      <point x="73" y="502" type="line"/>
      <point x="73" y="515" type="line"/>
      <point x="59" y="515" type="line"/>
    </contour>
    <contour>
      <point x="88" y="403" type="line"/>
      <point x="102" y="403" type="line"/>
      <point x="102" y="615" type="line"/>
      <point x="88" y="615" type="line"/>
    </contour>
    <contour>
      <point x="60" y="503" type="line"/>
      <point x="68" y="519" type="line"/>
      <point x="41" y="615" type="line"/>
      <point x="30" y="603" type="line"/>
    </contour>
    <contour>
      <point x="32" y="601" type="line"/>
      <point x="102" y="601" type="line"/>
      <point x="102" y="615" type="line"/>
      <point x="32" y="615" type="line"/>
    </contour>
    <contour>
      <point x="72" y="503" type="line"/>
      <point x="101" y="603" type="line"/>
      <point x="90" y="615" type="line"/>
      <point x="63" y="519" type="line"/>
    </contour>
    <contour>
      <point x="120" y="403" type="line"/>
      <point x="192" y="403" type="line"/>
      <point x="192" y="416" type="line"/>
      <point x="120" y="416" type="line"/>
    </contour>
    <contour>
      <point x="131" y="403" type="line"/>
      <point x="158" y="498" type="line"/>
      <point x="149" y="514" type="line"/>
      <point x="120" y="414" type="line"/>
    </contour>
    <contour>
      <point x="180" y="403" type="line"/>
      <point x="192" y="414" type="line"/>
      <point x="162" y="515" type="line"/>
      <point x="153" y="499" type="line"/>
    </contour>
    <contour>
      <point x="120" y="403" type="line"/>
      <point x="134" y="403" type="line"/>
      <point x="134" y="615" type="line"/>
      <point x="120" y="615" type="line"/>
    </contour>
    <contour>
      <point x="149" y="502" type="line"/>
      <point x="163" y="502" type="line"/>
      <point x="163" y="515" type="line"/>
      <point x="149" y="515" type="line"/>
    </contour>
    <contour>
      <point x="178" y="403" type="line"/>
      <point x="192" y="403" type="line"/>
      <point x="192" y="615" type="line"/>
      <point x="178" y="615" type="line"/>
    </contour>
    <contour>
      <point x="151" y="503" type="line"/>
      <point x="158" y="519" type="line"/>
      <point x="131" y="615" type="line"/>
      <point x="120" y="603" type="line"/>
    </contour>
    <contour>
      <point x="122" y="601" type="line"/>
      <point x="192" y="601" type="line"/>
      <point x="192" y="615" type="line"/>
      <point x="122" y="615" type="line"/>
    </contour>
    <contour>
      <point x="162" y="503" type="line"/>
      <point x="191" y="603" type="line"/>
      <point x="180" y="615" type="line"/>
      <point x="153" y="519" type="line"/>
    </contour>
  </outline>
</glyph>
<glyph name="ampersand" format="2">
  <advance width="642"/>
  <unicode hex="0026"/>
  <outline>
    <contour>
      <point x="373" y="0" type="line"/>
      <point x="625" y="0" type="line"/>
      <point x="625" y="20" type="line"/>
      <point x="373" y="20" type="line"/>
    </contour>
    <contour>
      <point x="448" y="89" type="line"/>
      <point x="532" y="89" type="line"/>
      <point x="532" y="109" type="line"/>
      <point x="448" y="109" type="line"/>
    </contour>
    <contour>
      <point x="524" y="160" type="line"/>
      <point x="622" y="160" type="line"/>
      <point x="622" y="180" type="line"/>
      <point x="524" y="180" type="line"/>
    </contour>
    <contour>
      <point x="609" y="7" type="line"/>
      <point x="623" y="20" type="line"/>
      <point x="535" y="107" type="line"/>
      <point x="519" y="95" type="line"/>
    </contour>
    <contour>
      <point x="612" y="0" type="line"/>
      <point x="632" y="0" type="line"/>
      <point x="632" y="180" type="line"/>
      <point x="612" y="180" type="line"/>
    </contour>
    <contour>
      <point x="609" y="177" type="line"/>
      <point x="519" y="99" type="line"/>
      <point x="535" y="87" type="line"/>
      <point x="623" y="164" type="line"/>
    </contour>
    <contour>
      <point x="384" y="2" type="line"/>
      <point x="458" y="98" type="line"/>
      <point x="441" y="108" type="line"/>
      <point x="369" y="15" type="line"/>
    </contour>
    <contour>
      <point x="529" y="180" type="line"/>
      <point x="444" y="112" type="line"/>
      <point x="455" y="96" type="line"/>
      <point x="543" y="167" type="line"/>
    </contour>
    <contour>
      <point x="261" y="371" type="line"/>
      <point x="277" y="383" type="line"/>
      <point x="236" y="445" type="line"/>
      <point x="220" y="433" type="line"/>
    </contour>
    <contour>
      <point x="352" y="437" type="line"/>
      <point x="368" y="449" type="line"/>
      <point x="344" y="485" type="line"/>
      <point x="328" y="473" type="line"/>
    </contour>
    <contour>
      <point x="170" y="306" type="line"/>
      <point x="186" y="317" type="line"/>
      <point x="121" y="415" type="line"/>
      <point x="105" y="403" type="line"/>
    </contour>
    <contour>
      <point x="513" y="372" type="line"/>
      <point x="261" y="181" type="line"/>
      <point x="272" y="165" type="line"/>
      <point x="526" y="357" type="line"/>
    </contour>
    <contour>
      <point x="516" y="322" type="line"/>
      <point x="212" y="101" type="line"/>
      <point x="223" y="85" type="line"/>
      <point x="530" y="309" type="line"/>
    </contour>
    <contour>
      <point x="599" y="314" type="line"/>
      <point x="201" y="16" type="line"/>
      <point x="212" y="0" type="line"/>
      <point x="617" y="307" type="line"/>
    </contour>
    <contour>
      <point x="139" y="85" type="line"/>
      <point x="223" y="85" type="line"/>
      <point x="223" y="105" type="line"/>
      <point x="139" y="105" type="line"/>
    </contour>
    <contour>
      <point x="85" y="0" type="line"/>
      <point x="212" y="0" type="line"/>
      <point x="212" y="20" type="line"/>
      <point x="85" y="20" type="line"/>
    </contour>
    <contour>
      <point x="428" y="470" type="line"/>
      <point x="136" y="251" type="line"/>
      <point x="151" y="244" type="line"/>
      <point x="444" y="460" type="line"/>
    </contour>
    <contour>
      <point x="477" y="447" type="line"/>
      <point x="198" y="244" type="line"/>
      <point x="220" y="239" type="line"/>
      <point x="491" y="434" type="line"/>
    </contour>
    <contour>
      <point x="392" y="478" type="line"/>
      <point x="49" y="224" type="line"/>
      <point x="58" y="209" type="line"/>
      <point x="404" y="466" type="line"/>
    </contour>
    <contour>
      <point x="25" y="95" type="line"/>
      <point x="10" y="81" type="line"/>
      <point x="85" y="0" type="line"/>
      <point x="99" y="14" type="line"/>
    </contour>
    <contour>
      <point x="98" y="155" type="line"/>
      <point x="83" y="141" type="line"/>
      <point x="139" y="85" type="line"/>
      <point x="153" y="99" type="line"/>
    </contour>
    <contour>
      <point x="94" y="5" type="line"/>
      <point x="153" y="93" type="line"/>
      <point x="137" y="105" type="line"/>
      <point x="80" y="18" type="line"/>
    </contour>
    <contour>
      <point x="227" y="18" type="line"/>
      <point x="230" y="96" type="line"/>
      <point x="208" y="97" type="line"/>
      <point x="204" y="11" type="line"/>
    </contour>
    <contour>
      <point x="149" y="94" type="line"/>
      <point x="214" y="155" type="line"/>
      <point x="198" y="167" type="line"/>
      <point x="135" y="107" type="line"/>
    </contour>
    <contour>
      <point x="199" y="147" type="line"/>
      <point x="272" y="165" type="line"/>
      <point x="272" y="185" type="line"/>
      <point x="199" y="167" type="line"/>
    </contour>
    <contour>
      <point x="183" y="200" type="line"/>
      <point x="169" y="187" type="line"/>
      <point x="202" y="145" type="line"/>
      <point x="215" y="158" type="line"/>
    </contour>
    <contour>
      <point x="169" y="187" type="line"/>
      <point x="186" y="179" type="line"/>
      <point x="219" y="239" type="line"/>
      <point x="200" y="244" type="line"/>
    </contour>
    <contour>
      <point x="223" y="86" type="line"/>
      <point x="280" y="174" type="line"/>
      <point x="267" y="186" type="line"/>
      <point x="210" y="99" type="line"/>
    </contour>
    <contour>
      <point x="507" y="307" type="line"/>
      <point x="523" y="310" type="line"/>
      <point x="522" y="359" type="line"/>
      <point x="506" y="359" type="line"/>
    </contour>
    <contour>
      <point x="515" y="318" type="line"/>
      <point x="513" y="301" type="line"/>
      <point x="599" y="294" type="line"/>
      <point x="602" y="310" type="line"/>
    </contour>
    <contour>
      <point x="603" y="298" type="line"/>
      <point x="617" y="307" type="line"/>
      <point x="513" y="372" type="line"/>
      <point x="503" y="360" type="line"/>
    </contour>
    <contour>
      <point x="10" y="81" type="line"/>
      <point x="30" y="81" type="line"/>
      <point x="30" y="136" type="line"/>
      <point x="10" y="136" type="line"/>
    </contour>
    <contour>
      <point x="28" y="128" type="line"/>
      <point x="67" y="217" type="line"/>
      <point x="49" y="224" type="line"/>
      <point x="10" y="136" type="line"/>
    </contour>
    <contour>
      <point x="263" y="169" type="line"/>
      <point x="279" y="180" type="line"/>
      <point x="230" y="254" type="line"/>
      <point x="214" y="242" type="line"/>
    </contour>
    <contour>
      <point x="419" y="170" type="line"/>
      <point x="403" y="159" type="line"/>
      <point x="446" y="94" type="line"/>
      <point x="460" y="107" type="line"/>
    </contour>
    <contour>
      <point x="330" y="101" type="line"/>
      <point x="315" y="89" type="line"/>
      <point x="373" y="0" type="line"/>
      <point x="387" y="13" type="line"/>
    </contour>
    <contour>
      <point x="507" y="235" type="line"/>
      <point x="492" y="223" type="line"/>
      <point x="525" y="165" type="line"/>
      <point x="539" y="178" type="line"/>
    </contour>
    <contour>
      <point x="319" y="321" type="line"/>
      <point x="302" y="309" type="line"/>
      <point x="348" y="240" type="line"/>
      <point x="365" y="251" type="line"/>
    </contour>
    <contour>
      <point x="408" y="385" type="line"/>
      <point x="392" y="374" type="line"/>
      <point x="438" y="306" type="line"/>
      <point x="453" y="318" type="line"/>
    </contour>
    <contour>
      <point x="230" y="500" type="line"/>
      <point x="211" y="498" type="line"/>
      <point x="220" y="433" type="line"/>
      <point x="239" y="437" type="line"/>
    </contour>
    <contour>
      <point x="101" y="136" type="line"/>
      <point x="156" y="248" type="line"/>
      <point x="136" y="251" type="line"/>
      <point x="83" y="141" type="line"/>
    </contour>
    <contour>
      <point x="24" y="83" type="line"/>
      <point x="105" y="143" type="line"/>
      <point x="101" y="166" type="line"/>
      <point x="16" y="101" type="line"/>
    </contour>
    <contour>
      <point x="47" y="210" type="line"/>
      <point x="141" y="238" type="line"/>
      <point x="153" y="260" type="line"/>
      <point x="62" y="231" type="line"/>
    </contour>
    <contour>
      <point x="333" y="491" type="line"/>
      <point x="226" y="445" type="line"/>
      <point x="235" y="429" type="line"/>
      <point x="340" y="477" type="line"/>
    </contour>
    <contour>
      <point x="105" y="403" type="line"/>
      <point x="125" y="403" type="line"/>
      <point x="125" y="505" type="line"/>
      <point x="105" y="508" type="line"/>
    </contour>
    <contour>
      <point x="471" y="434" type="line"/>
      <point x="491" y="434" type="line"/>
      <point x="491" y="523" type="line"/>
      <point x="471" y="523" type="line"/>
    </contour>
    <contour>
      <point x="324" y="478" type="line"/>
      <point x="344" y="478" type="line"/>
      <point x="344" y="505" type="line"/>
      <point x="324" y="505" type="line"/>
    </contour>
    <contour>
      <point x="385" y="468" type="line"/>
      <point x="404" y="466" type="line"/>
      <point x="404" y="499" type="line"/>
      <point x="385" y="505" type="line"/>
    </contour>
    <contour>
      <point x="430" y="478" type="line"/>
      <point x="423" y="460" type="line"/>
      <point x="481" y="434" type="line"/>
      <point x="486" y="452" type="line"/>
    </contour>
    <contour>
      <point x="422" y="465" type="line"/>
      <point x="441" y="463" type="line"/>
      <point x="441" y="508" type="line"/>
      <point x="422" y="508" type="line"/>
    </contour>
    <contour>
      <point x="181" y="200" type="line"/>
      <point x="94" y="157" type="line"/>
      <point x="95" y="138" type="line"/>
      <point x="188" y="186" type="line"/>
    </contour>
    <contour>
      <point x="141" y="238" type="line"/>
      <point x="201" y="235" type="line"/>
      <point x="212" y="252" type="line"/>
      <point x="149" y="254" type="line"/>
    </contour>
    <contour>
      <point x="211" y="498" type="line"/>
      <point x="227" y="489" type="line"/>
      <point x="295" y="553" type="line"/>
      <point x="283" y="567" type="line"/>
    </contour>
    <contour>
      <point x="117" y="398" type="line"/>
      <point x="235" y="428" type="line"/>
      <point x="232" y="446" type="line"/>
      <point x="115" y="418" type="line"/>
    </contour>
    <contour>
      <point x="112" y="498" type="line"/>
      <point x="223" y="489" type="line"/>
      <point x="229" y="506" type="line"/>
      <point x="118" y="515" type="line"/>
    </contour>
    <contour>
      <point x="105" y="508" type="line"/>
      <point x="123" y="499" type="line"/>
      <point x="237" y="586" type="line"/>
      <point x="222" y="600" type="line"/>
    </contour>
    <contour>
      <point x="282" y="547" type="line"/>
      <point x="378" y="547" type="line"/>
      <point x="379" y="567" type="line"/>
      <point x="283" y="567" type="line"/>
    </contour>
    <contour>
      <point x="223" y="580" type="line"/>
      <point x="408" y="580" type="line"/>
      <point x="406" y="600" type="line"/>
      <point x="222" y="600" type="line"/>
    </contour>
    <contour>
      <point x="360" y="522" type="line"/>
      <point x="377" y="518" type="line"/>
      <point x="386" y="549" type="line"/>
      <point x="369" y="553" type="line"/>
    </contour>
    <contour>
      <point x="491" y="523" type="line"/>
      <point x="406" y="600" type="line"/>
      <point x="394" y="586" type="line"/>
      <point x="473" y="514" type="line"/>
    </contour>
    <contour>
      <point x="441" y="508" type="line"/>
      <point x="379" y="567" type="line"/>
      <point x="367" y="553" type="line"/>
      <point x="426" y="496" type="line"/>
    </contour>
    <contour>
      <point x="404" y="499" type="line"/>
      <point x="378" y="526" type="line"/>
      <point x="364" y="514" type="line"/>
      <point x="392" y="486" type="line"/>
    </contour>
    <contour>
      <point x="324" y="505" type="line"/>
      <point x="336" y="492" type="line"/>
      <point x="358" y="514" type="line"/>
      <point x="344" y="526" type="line"/>
    </contour>
    <contour>
      <point x="343" y="510" type="line"/>
      <point x="378" y="510" type="line"/>
      <point x="379" y="526" type="line"/>
      <point x="344" y="526" type="line"/>
    </contour>
    <contour>
      <point x="219" y="586" type="line"/>
      <point x="285" y="548" type="line"/>
      <point x="300" y="558" type="line"/>
      <point x="231" y="596" type="line"/>
    </contour>
    <contour>
      <point x="412" y="588" type="line"/>
      <point x="400" y="598" type="line"/>
      <point x="369" y="562" type="line"/>
      <point x="384" y="552" type="line"/>
    </contour>
  </outline>
</glyph>
<glyph name="quotesingle" format="2">
  <advance width="132"/>
  <unicode hex="0027"/>
  <outline>
    <contour>
      <point x="30" y="403" type="line"/>
      <point x="102" y="403" type="line"/>
      <point x="102" y="416" type="line"/>
      <point x="30" y="416" type="line"/>
    </contour>
    <contour>
      <point x="41" y="403" type="line"/>
      <point x="68" y="498" type="line"/>
      <point x="59" y="514" type="line"/>
      <point x="30" y="414" type="line"/>
    </contour>
    <contour>
      <point x="90" y="403" type="line"/>
      <point x="102" y="414" type="line"/>
      <point x="72" y="515" type="line"/>
      <point x="63" y="499" type="line"/>
    </contour>
    <contour>
      <point x="30" y="403" type="line"/>
      <point x="44" y="403" type="line"/>
      <point x="44" y="615" type="line"/>
      <point x="30" y="615" type="line"/>
    </contour>
    <contour>
      <point x="59" y="502" type="line"/>
      <point x="73" y="502" type="line"/>
      <point x="73" y="515" type="line"/>
      <point x="59" y="515" type="line"/>
    </contour>
    <contour>
      <point x="88" y="403" type="line"/>
      <point x="102" y="403" type="line"/>
      <point x="102" y="615" type="line"/>
      <point x="88" y="615" type="line"/>
    </contour>
    <contour>
      <point x="60" y="503" type="line"/>
      <point x="68" y="519" type="line"/>
      <point x="41" y="615" type="line"/>
      <point x="30" y="603" type="line"/>
    </contour>
    <contour>
      <point x="32" y="601" type="line"/>
      <point x="102" y="601" type="line"/>
      <point x="102" y="615" type="line"/>
      <point x="32" y="615" type="line"/>
    </contour>
    <contour>
      <point x="72" y="503" type="line"/>
      <point x="101" y="603" type="line"/>
      <point x="90" y="615" type="line"/>
      <point x="63" y="519" type="line"/>
    </contour>
  </outline>
</glyph>
<glyph name="asterisk" format="2">
  <advance width="383"/>
  <unicode hex="002A"/>
  <outline>
    <contour>
      <point x="89" y="339" type="line"/>
      <point x="201" y="408" type="line"/>
      <point x="191" y="418" type="line"/>
      <point x="82" y="352" type="line"/>
    </contour>
    <contour>
      <point x="55" y="579" type="line"/>
      <point x="67" y="568" type="line"/>
      <point x="99" y="600" type="line"/>
      <point x="87" y="611" type="line"/>
    </contour>
    <contour>
      <point x="56" y="369" type="line"/>
      <point x="88" y="337" type="line"/>
      <point x="99" y="349" type="line"/>
      <point x="67" y="380" type="line"/>
    </contour>
    <contour>
      <point x="123" y="469" type="line"/>
      <point x="133" y="479" type="line"/>
      <point x="67" y="587" type="line"/>
      <point x="55" y="579" type="line"/>
    </contour>
    <contour>
      <point x="56" y="369" type="line"/>
      <point x="70" y="363" type="line"/>
      <point x="134" y="468" type="line"/>
      <point x="123" y="479" type="line"/>
    </contour>
    <contour>
      <point x="65" y="361" type="line"/>
      <point x="162" y="435" type="line"/>
      <point x="163" y="452" type="line"/>
      <point x="64" y="377" type="line"/>
    </contour>
    <contour>
      <point x="63" y="571" type="line"/>
      <point x="166" y="493" type="line"/>
      <point x="169" y="506" type="line"/>
      <point x="63" y="587" type="line"/>
    </contour>
    <contour>
      <point x="80" y="345" type="line"/>
      <point x="96" y="345" type="line"/>
      <point x="171" y="444" type="line"/>
      <point x="154" y="443" type="line"/>
    </contour>
    <contour>
      <point x="161" y="498" type="line"/>
      <point x="174" y="501" type="line"/>
      <point x="96" y="604" type="line"/>
      <point x="79" y="603" type="line"/>
    </contour>
    <contour>
      <point x="79" y="598" type="line"/>
      <point x="188" y="531" type="line"/>
      <point x="199" y="542" type="line"/>
      <point x="87" y="611" type="line"/>
    </contour>
    <contour>
      <point x="119" y="465" type="line"/>
      <point x="185" y="465" type="line"/>
      <point x="187" y="480" type="line"/>
      <point x="120" y="479" type="line"/>
    </contour>
    <contour>
      <point x="183" y="409" type="line"/>
      <point x="198" y="409" type="line"/>
      <point x="200" y="477" type="line"/>
      <point x="183" y="476" type="line"/>
    </contour>
    <contour>
      <point x="153" y="443" type="line"/>
      <point x="163" y="433" type="line"/>
      <point x="231" y="501" type="line"/>
      <point x="221" y="511" type="line"/>
    </contour>
    <contour>
      <point x="160" y="497" type="line"/>
      <point x="214" y="443" type="line"/>
      <point x="224" y="453" type="line"/>
      <point x="170" y="507" type="line"/>
    </contour>
    <contour>
      <point x="183" y="472" type="line"/>
      <point x="200" y="474" type="line"/>
      <point x="202" y="540" type="line"/>
      <point x="185" y="540" type="line"/>
    </contour>
    <contour>
      <point x="191" y="465" type="line"/>
      <point x="259" y="466" type="line"/>
      <point x="260" y="482" type="line"/>
      <point x="192" y="481" type="line"/>
    </contour>
    <contour>
      <point x="186" y="407" type="line"/>
      <point x="295" y="339" type="line"/>
      <point x="302" y="351" type="line"/>
      <point x="195" y="417" type="line"/>
    </contour>
    <contour>
      <point x="185" y="540" type="line"/>
      <point x="195" y="530" type="line"/>
      <point x="304" y="596" type="line"/>
      <point x="296" y="609" type="line"/>
    </contour>
    <contour>
      <point x="287" y="347" type="line"/>
      <point x="303" y="347" type="line"/>
      <point x="222" y="452" type="line"/>
      <point x="209" y="450" type="line"/>
    </contour>
    <contour>
      <point x="217" y="506" type="line"/>
      <point x="229" y="503" type="line"/>
      <point x="304" y="600" type="line"/>
      <point x="287" y="600" type="line"/>
    </contour>
    <contour>
      <point x="214" y="445" type="line"/>
      <point x="319" y="363" type="line"/>
      <point x="320" y="380" type="line"/>
      <point x="217" y="458" type="line"/>
    </contour>
    <contour>
      <point x="225" y="497" type="line"/>
      <point x="319" y="569" type="line"/>
      <point x="320" y="585" type="line"/>
      <point x="221" y="510" type="line"/>
    </contour>
    <contour>
      <point x="314" y="366" type="line"/>
      <point x="327" y="371" type="line"/>
      <point x="256" y="484" type="line"/>
      <point x="246" y="474" type="line"/>
    </contour>
    <contour>
      <point x="248" y="475" type="line"/>
      <point x="258" y="465" type="line"/>
      <point x="328" y="577" type="line"/>
      <point x="316" y="585" type="line"/>
    </contour>
    <contour>
      <point x="284" y="351" type="line"/>
      <point x="295" y="339" type="line"/>
      <point x="327" y="371" type="line"/>
      <point x="316" y="383" type="line"/>
    </contour>
    <contour>
      <point x="284" y="597" type="line"/>
      <point x="316" y="565" type="line"/>
      <point x="328" y="577" type="line"/>
      <point x="296" y="609" type="line"/>
    </contour>
  </outline>
</glyph>
<glyph name="hyphen" format="2">
  <advance width="261"/>
  <unicode hex="002D"/>
  <unicode hex="2010"/>
  <outline>
    <contour>
      <point x="15" y="224" type="line"/>
      <point x="240" y="224" type="line"/>
      <point x="240" y="242" type="line"/>
      <point x="15" y="242" type="line"/>
    </contour>
    <contour>
      <point x="29" y="224" type="line"/>
      <point x="107" y="300" type="line"/>
      <point x="91" y="313" type="line"/>
      <point x="15" y="238" type="line"/>
    </contour>
    <contour>
      <point x="232" y="224" type="line"/>
      <point x="246" y="238" type="line"/>
      <point x="169" y="314" type="line"/>
      <point x="154" y="300" type="line"/>
    </contour>
    <contour>
      <point x="15" y="224" type="line"/>
      <point x="35" y="224" type="line"/>
      <point x="35" y="389" type="line"/>
      <point x="15" y="389" type="line"/>
    </contour>
    <contour>
      <point x="91" y="296" type="line"/>
      <point x="174" y="296" type="line"/>
      <point x="174" y="319" type="line"/>
      <point x="91" y="319" type="line"/>
    </contour>
    <contour>
      <point x="226" y="224" type="line"/>
      <point x="246" y="224" type="line"/>
      <point x="246" y="389" type="line"/>
      <point x="226" y="389" type="line"/>
    </contour>
    <contour>
      <point x="92" y="300" type="line"/>
      <point x="107" y="314" type="line"/>
      <point x="29" y="389" type="line"/>
      <point x="15" y="375" type="line"/>
    </contour>
    <contour>
      <point x="18" y="371" type="line"/>
      <point x="240" y="371" type="line"/>
      <point x="240" y="389" type="line"/>
      <point x="18" y="389" type="line"/>
    </contour>
    <contour>
      <point x="169" y="300" type="line"/>
      <point x="245" y="375" type="line"/>
      <point x="231" y="389" type="line"/>
      <point x="154" y="314" type="line"/>
    </contour>
  </outline>
</glyph>
<glyph name="period" format="2">
  <advance width="224"/>
  <unicode hex="002E"/>
  <outline>
    <contour>
      <point x="15" y="0" type="line"/>
      <point x="209" y="0" type="line"/>
      <point x="209" y="19" type="line"/>
      <point x="15" y="19" type="line"/>
    </contour>
    <contour>
      <point x="30" y="0" type="line"/>
      <point x="116" y="86" type="line"/>
      <point x="104" y="104" type="line"/>
      <point x="15" y="15" type="line"/>
    </contour>
    <contour>
      <point x="194" y="0" type="line"/>
      <point x="209" y="15" type="line"/>
      <point x="119" y="105" type="line"/>
      <point x="107" y="87" type="line"/>
    </contour>
    <contour>
      <point x="15" y="0" type="line"/>
      <point x="34" y="0" type="line"/>
      <point x="34" y="194" type="line"/>
      <point x="15" y="194" type="line"/>
    </contour>
    <contour>
      <point x="104" y="89" type="line"/>
      <point x="120" y="89" type="line"/>
      <point x="120" y="105" type="line"/>
      <point x="104" y="105" type="line"/>
    </contour>
    <contour>
      <point x="190" y="0" type="line"/>
      <point x="209" y="0" type="line"/>
      <point x="209" y="194" type="line"/>
      <point x="190" y="194" type="line"/>
    </contour>
    <contour>
      <point x="105" y="90" type="line"/>
      <point x="117" y="108" type="line"/>
      <point x="30" y="194" type="line"/>
      <point x="15" y="179" type="line"/>
    </contour>
    <contour>
      <point x="19" y="175" type="line"/>
      <point x="209" y="175" type="line"/>
      <point x="209" y="194" type="line"/>
      <point x="19" y="194" type="line"/>
    </contour>
    <contour>
      <point x="119" y="90" type="line"/>
      <point x="208" y="179" type="line"/>
      <point x="193" y="194" type="line"/>
      <point x="107" y="108" type="line"/>
    </contour>
  </outline>
</glyph>
<glyph name="one" format="2">
  <advance width="380"/>
  <unicode hex="0031"/>
  <outline>
    <contour>
      <point x="170" y="0" type="line"/>
      <point x="370" y="0" type="line"/>
      <point x="370" y="20" type="line"/>
      <point x="170" y="20" type="line"/>
    </contour>
    <contour>
      <point x="183" y="0" type="line"/>
      <point x="275" y="112" type="line"/>
      <point x="262" y="125" type="line"/>
      <point x="170" y="13" type="line"/>
    </contour>
    <contour>
      <point x="357" y="0" type="line"/>
      <point x="370" y="13" type="line"/>
      <point x="278" y="125" type="line"/>
      <point x="265" y="112" type="line"/>
    </contour>
    <contour>
      <point x="170" y="3" type="line"/>
      <point x="190" y="3" type="line"/>
      <point x="190" y="350" type="line"/>
      <point x="170" y="350" type="line"/>
    </contour>
    <contour>
      <point x="260" y="110" type="line"/>
      <point x="280" y="110" type="line"/>
      <point x="280" y="530" type="line"/>
      <point x="260" y="530" type="line"/>
    </contour>
    <contour>
      <point x="350" y="0" type="line"/>
      <point x="370" y="0" type="line"/>
      <point x="370" y="600" type="line"/>
      <point x="350" y="600" type="line"/>
    </contour>
    <contour>
      <point x="262" y="515" type="line"/>
      <point x="275" y="528" type="line"/>
      <point x="153" y="600" type="line"/>
      <point x="140" y="587" type="line"/>
    </contour>
    <contour>
      <point x="144" y="580" type="line"/>
      <point x="370" y="580" type="line"/>
      <point x="370" y="600" type="line"/>
      <point x="144" y="600" type="line"/>
    </contour>
    <contour>
      <point x="277" y="515" type="line"/>
      <point x="369" y="587" type="line"/>
      <point x="356" y="600" type="line"/>
      <point x="264" y="528" type="line"/>
    </contour>
    <contour>
      <point x="193" y="560" type="line"/>
      <point x="126" y="427" type="line"/>
      <point x="149" y="427" type="line"/>
      <point x="212" y="550" type="line"/>
    </contour>
    <contour>
      <point x="261" y="528" type="line"/>
      <point x="167" y="340" type="line"/>
      <point x="186" y="334" type="line"/>
      <point x="281" y="523" type="line"/>
    </contour>
    <contour>
      <point x="144" y="600" type="line"/>
      <point x="5" y="334" type="line"/>
      <point x="25" y="334" type="line"/>
      <point x="164" y="595" type="line"/>
    </contour>
    <contour>
      <point x="144" y="438" type="line"/>
      <point x="130" y="424" type="line"/>
      <point x="176" y="341" type="line"/>
      <point x="188" y="354" type="line"/>
    </contour>
    <contour>
      <point x="139" y="441" type="line"/>
      <point x="25" y="353" type="line"/>
      <point x="36" y="338" type="line"/>
      <point x="150" y="425" type="line"/>
    </contour>
    <contour>
      <point x="186" y="354" type="line"/>
      <point x="22" y="354" type="line"/>
      <point x="22" y="334" type="line"/>
      <point x="186" y="334" type="line"/>
    </contour>
  </outline>
</glyph>
<glyph name="three" format="2">
  <advance width="498"/>
  <unicode hex="0033"/>
  <outline>
    <contour>
      <point x="488" y="241" type="line"/>
      <point x="465" y="241" type="line"/>
      <point x="465" y="114" type="line"/>
      <point x="488" y="114" type="line"/>
    </contour>
    <contour>
      <point x="381" y="227" type="line"/>
      <point x="363" y="227" type="line"/>
      <point x="363" y="144" type="line"/>
      <point x="381" y="144" type="line"/>
    </contour>
    <contour>
      <point x="275" y="185" type="line"/>
      <point x="269" y="168" type="line"/>
      <point x="368" y="141" type="line"/>
      <point x="372" y="159" type="line"/>
    </contour>
    <contour>
      <point x="477" y="130" type="line"/>
      <point x="330" y="15" type="line"/>
      <point x="342" y="-1" type="line"/>
      <point x="488" y="114" type="line"/>
    </contour>
    <contour>
      <point x="372" y="159" type="line"/>
      <point x="280" y="90" type="line"/>
      <point x="292" y="75" type="line"/>
      <point x="384" y="144" type="line"/>
    </contour>
    <contour>
      <point x="269" y="187" type="line"/>
      <point x="242" y="167" type="line"/>
      <point x="252" y="152" type="line"/>
      <point x="280" y="172" type="line"/>
    </contour>
    <contour>
      <point x="252" y="173" type="line"/>
      <point x="215" y="173" type="line"/>
      <point x="215" y="152" type="line"/>
      <point x="252" y="152" type="line"/>
    </contour>
    <contour>
      <point x="204" y="203" type="line"/>
      <point x="184" y="203" type="line"/>
      <point x="184" y="175" type="line"/>
      <point x="204" y="175" type="line"/>
    </contour>
    <contour>
      <point x="193" y="190" type="line"/>
      <point x="182" y="175" type="line"/>
      <point x="216" y="153" type="line"/>
      <point x="227" y="169" type="line"/>
    </contour>
    <contour>
      <point x="229" y="158" type="line"/>
      <point x="212" y="166" type="line"/>
      <point x="177" y="91" type="line"/>
      <point x="194" y="84" type="line"/>
    </contour>
    <contour>
      <point x="290" y="95" type="line"/>
      <point x="180" y="95" type="line"/>
      <point x="180" y="75" type="line"/>
      <point x="292" y="75" type="line"/>
    </contour>
    <contour>
      <point x="204" y="218" type="line"/>
      <point x="10" y="218" type="line"/>
      <point x="10" y="198" type="line"/>
      <point x="204" y="198" type="line"/>
    </contour>
    <contour>
      <point x="107" y="157" type="line"/>
      <point x="96" y="142" type="line"/>
      <point x="180" y="75" type="line"/>
      <point x="192" y="91" type="line"/>
    </contour>
    <contour>
      <point x="342" y="19" type="line"/>
      <point x="152" y="19" type="line"/>
      <point x="149" y="-1" type="line"/>
      <point x="342" y="-1" type="line"/>
    </contour>
    <contour>
      <point x="113" y="143" type="line"/>
      <point x="97" y="156" type="line"/>
      <point x="17" y="140" type="line"/>
      <point x="22" y="124" type="line"/>
    </contour>
    <contour>
      <point x="175" y="89" type="line"/>
      <point x="143" y="10" type="line"/>
      <point x="161" y="4" type="line"/>
      <point x="194" y="83" type="line"/>
    </contour>
    <contour>
      <point x="30" y="198" type="line"/>
      <point x="10" y="198" type="line"/>
      <point x="10" y="123" type="line"/>
      <point x="30" y="126" type="line"/>
    </contour>
    <contour>
      <point x="20" y="141" type="line"/>
      <point x="10" y="123" type="line"/>
      <point x="149" y="-1" type="line"/>
      <point x="162" y="14" type="line"/>
    </contour>
    <contour>
      <point x="97" y="156" type="line"/>
      <point x="105" y="140" type="line"/>
      <point x="197" y="173" type="line"/>
      <point x="190" y="189" type="line"/>
    </contour>
    <contour>
      <point x="373" y="159" type="line"/>
      <point x="370" y="139" type="line"/>
      <point x="474" y="109" type="line"/>
      <point x="478" y="129" type="line"/>
    </contour>
    <contour>
      <point x="254" y="170" type="line"/>
      <point x="236" y="164" type="line"/>
      <point x="284" y="80" type="line"/>
      <point x="301" y="86" type="line"/>
    </contour>
    <contour>
      <point x="295" y="93" type="line"/>
      <point x="278" y="86" type="line"/>
      <point x="330" y="7" type="line"/>
      <point x="346" y="16" type="line"/>
    </contour>
    <contour>
      <point x="271" y="248" type="line"/>
      <point x="370" y="211" type="line"/>
      <point x="370" y="231" type="line"/>
      <point x="271" y="268" type="line"/>
    </contour>
    <contour>
      <point x="365" y="217" type="line"/>
      <point x="381" y="227" type="line"/>
      <point x="325" y="315" type="line"/>
      <point x="308" y="306" type="line"/>
    </contour>
    <contour>
      <point x="321" y="322" type="line"/>
      <point x="211" y="322" type="line"/>
      <point x="211" y="302" type="line"/>
      <point x="321" y="302" type="line"/>
    </contour>
    <contour>
      <point x="468" y="381" type="line"/>
      <point x="468" y="515" type="line"/>
      <point x="448" y="515" type="line"/>
      <point x="448" y="381" type="line"/>
    </contour>
    <contour>
      <point x="362" y="388" type="line"/>
      <point x="362" y="485" type="line"/>
      <point x="342" y="485" type="line"/>
      <point x="342" y="388" type="line"/>
    </contour>
    <contour>
      <point x="356" y="386" type="line"/>
      <point x="348" y="402" type="line"/>
      <point x="265" y="366" type="line"/>
      <point x="273" y="350" type="line"/>
    </contour>
    <contour>
      <point x="269" y="431" type="line"/>
      <point x="355" y="472" type="line"/>
      <point x="347" y="489" type="line"/>
      <point x="262" y="448" type="line"/>
    </contour>
    <contour>
      <point x="457" y="499" type="line"/>
      <point x="468" y="515" type="line"/>
      <point x="342" y="600" type="line"/>
      <point x="330" y="584" type="line"/>
    </contour>
    <contour>
      <point x="280" y="361" type="line"/>
      <point x="280" y="448" type="line"/>
      <point x="260" y="448" type="line"/>
      <point x="260" y="361" type="line"/>
    </contour>
    <contour>
      <point x="350" y="470" type="line"/>
      <point x="362" y="485" type="line"/>
      <point x="292" y="544" type="line"/>
      <point x="280" y="529" type="line"/>
    </contour>
    <contour>
      <point x="269" y="431" type="line"/>
      <point x="280" y="448" type="line"/>
      <point x="242" y="467" type="line"/>
      <point x="233" y="450" type="line"/>
    </contour>
    <contour>
      <point x="242" y="446" type="line"/>
      <point x="242" y="467" type="line"/>
      <point x="225" y="467" type="line"/>
      <point x="225" y="446" type="line"/>
    </contour>
    <contour>
      <point x="194" y="406" type="line"/>
      <point x="194" y="444" type="line"/>
      <point x="174" y="444" type="line"/>
      <point x="174" y="406" type="line"/>
    </contour>
    <contour>
      <point x="185" y="428" type="line"/>
      <point x="233" y="449" type="line"/>
      <point x="225" y="467" type="line"/>
      <point x="174" y="444" type="line"/>
    </contour>
    <contour>
      <point x="237" y="460" type="line"/>
      <point x="195" y="534" type="line"/>
      <point x="178" y="527" type="line"/>
      <point x="220" y="453" type="line"/>
    </contour>
    <contour>
      <point x="290" y="524" type="line"/>
      <point x="292" y="544" type="line"/>
      <point x="180" y="544" type="line"/>
      <point x="180" y="524" type="line"/>
    </contour>
    <contour>
      <point x="194" y="391" type="line"/>
      <point x="194" y="411" type="line"/>
      <point x="20" y="411" type="line"/>
      <point x="20" y="391" type="line"/>
    </contour>
    <contour>
      <point x="116" y="455" type="line"/>
      <point x="192" y="528" type="line"/>
      <point x="180" y="543" type="line"/>
      <point x="101" y="466" type="line"/>
    </contour>
    <contour>
      <point x="342" y="580" type="line"/>
      <point x="342" y="600" type="line"/>
      <point x="129" y="600" type="line"/>
      <point x="132" y="580" type="line"/>
    </contour>
    <contour>
      <point x="113" y="468" type="line"/>
      <point x="36" y="501" type="line"/>
      <point x="29" y="485" type="line"/>
      <point x="107" y="451" type="line"/>
    </contour>
    <contour>
      <point x="185" y="521" type="line"/>
      <point x="199" y="531" type="line"/>
      <point x="141" y="595" type="line"/>
      <point x="123" y="589" type="line"/>
    </contour>
    <contour>
      <point x="40" y="411" type="line"/>
      <point x="40" y="493" type="line"/>
      <point x="20" y="496" type="line"/>
      <point x="20" y="411" type="line"/>
    </contour>
    <contour>
      <point x="30" y="478" type="line"/>
      <point x="142" y="585" type="line"/>
      <point x="129" y="600" type="line"/>
      <point x="20" y="496" type="line"/>
    </contour>
    <contour>
      <point x="107" y="451" type="line"/>
      <point x="180" y="430" type="line"/>
      <point x="187" y="446" type="line"/>
      <point x="105" y="471" type="line"/>
    </contour>
    <contour>
      <point x="351" y="471" type="line"/>
      <point x="462" y="499" type="line"/>
      <point x="458" y="517" type="line"/>
      <point x="348" y="489" type="line"/>
    </contour>
    <contour>
      <point x="249" y="454" type="line"/>
      <point x="298" y="531" type="line"/>
      <point x="282" y="539" type="line"/>
      <point x="234" y="462" type="line"/>
    </contour>
    <contour>
      <point x="290" y="526" type="line"/>
      <point x="348" y="583" type="line"/>
      <point x="334" y="593" type="line"/>
      <point x="275" y="535" type="line"/>
    </contour>
    <contour>
      <point x="166" y="362" type="line"/>
      <point x="154" y="346" type="line"/>
      <point x="214" y="304" type="line"/>
      <point x="229" y="320" type="line"/>
    </contour>
    <contour>
      <point x="219" y="322" type="line"/>
      <point x="151" y="264" type="line"/>
      <point x="166" y="248" type="line"/>
      <point x="234" y="308" type="line"/>
    </contour>
    <contour>
      <point x="473" y="223" type="line"/>
      <point x="473" y="244" type="line"/>
      <point x="372" y="234" type="line"/>
      <point x="372" y="213" type="line"/>
    </contour>
    <contour>
      <point x="166" y="248" type="line"/>
      <point x="166" y="367" type="line"/>
      <point x="146" y="367" type="line"/>
      <point x="146" y="248" type="line"/>
    </contour>
    <contour>
      <point x="278" y="347" type="line"/>
      <point x="278" y="367" type="line"/>
      <point x="150" y="367" type="line"/>
      <point x="150" y="347" type="line"/>
    </contour>
    <contour>
      <point x="276" y="248" type="line"/>
      <point x="276" y="268" type="line"/>
      <point x="150" y="268" type="line"/>
      <point x="150" y="248" type="line"/>
    </contour>
    <contour>
      <point x="451" y="395" type="line"/>
      <point x="312" y="319" type="line"/>
      <point x="324" y="303" type="line"/>
      <point x="468" y="381" type="line"/>
    </contour>
    <contour>
      <point x="473" y="226" type="line"/>
      <point x="488" y="241" type="line"/>
      <point x="323" y="319" type="line"/>
      <point x="312" y="303" type="line"/>
    </contour>
    <contour>
      <point x="325" y="304" type="line"/>
      <point x="310" y="315" type="line"/>
      <point x="261" y="263" type="line"/>
      <point x="277" y="252" type="line"/>
    </contour>
    <contour>
      <point x="280" y="172" type="line"/>
      <point x="280" y="267" type="line"/>
      <point x="260" y="267" type="line"/>
      <point x="260" y="172" type="line"/>
    </contour>
    <contour>
      <point x="451" y="380" type="line"/>
      <point x="453" y="398" type="line"/>
      <point x="352" y="400" type="line"/>
      <point x="352" y="382" type="line"/>
    </contour>
    <contour>
      <point x="345" y="399" type="line"/>
      <point x="310" y="319" type="line"/>
      <point x="328" y="311" type="line"/>
      <point x="362" y="391" type="line"/>
    </contour>
    <contour>
      <point x="325" y="318" type="line"/>
      <point x="277" y="370" type="line"/>
      <point x="261" y="359" type="line"/>
      <point x="310" y="307" type="line"/>
    </contour>
  </outline>
</glyph>
<glyph name="four" format="2">
  <advance width="495"/>
  <unicode hex="0034"/>
  <outline>
    <contour>
      <point x="332" y="580" type="line"/>
      <point x="100" y="580" type="line"/>
    </contour>
    <contour>
      <point x="218" y="474" type="line"/>
      <point x="121" y="589" type="line"/>
      <point x="102" y="582" type="line"/>
      <point x="199" y="467" type="line"/>
    </contour>
    <contour>
      <point x="314" y="597" type="line"/>
      <point x="199" y="472" type="line"/>
      <point x="215" y="462" type="line"/>
      <point x="328" y="585" type="line"/>
    </contour>
    <contour>
      <point x="323" y="600" type="line"/>
      <point x="184" y="267" type="line"/>
      <point x="203" y="266" type="line"/>
      <point x="342" y="600" type="line"/>
    </contour>
    <contour>
      <point x="245" y="119" type="line"/>
      <point x="15" y="119" type="line"/>
      <point x="15" y="99" type="line"/>
      <point x="245" y="99" type="line"/>
    </contour>
    <contour>
      <point x="337" y="600" type="line"/>
      <point x="100" y="600" type="line"/>
      <point x="100" y="580" type="line"/>
      <point x="330" y="580" type="line"/>
    </contour>
    <contour>
      <point x="100" y="600" type="line"/>
      <point x="10" y="334" type="line"/>
      <point x="28" y="326" type="line"/>
      <point x="118" y="592" type="line"/>
    </contour>
    <contour>
      <point x="465" y="274" type="line"/>
      <point x="465" y="110" type="line"/>
      <point x="485" y="110" type="line"/>
      <point x="485" y="274" type="line"/>
    </contour>
    <contour>
      <point x="240" y="274" type="line"/>
      <point x="190" y="274" type="line"/>
      <point x="190" y="257" type="line"/>
      <point x="240" y="257" type="line"/>
    </contour>
    <contour>
      <point x="200" y="474" type="line"/>
      <point x="103" y="193" type="line"/>
      <point x="120" y="188" type="line"/>
      <point x="221" y="474" type="line"/>
    </contour>
    <contour>
      <point x="10" y="334" type="line"/>
      <point x="10" y="99" type="line"/>
      <point x="30" y="99" type="line"/>
      <point x="30" y="334" type="line"/>
    </contour>
    <contour>
      <point x="103" y="191" type="line"/>
      <point x="17" y="120" type="line"/>
      <point x="31" y="107" type="line"/>
      <point x="118" y="178" type="line"/>
    </contour>
    <contour>
      <point x="229" y="0" type="line"/>
      <point x="429" y="0" type="line"/>
      <point x="429" y="20" type="line"/>
      <point x="229" y="20" type="line"/>
    </contour>
    <contour>
      <point x="242" y="0" type="line"/>
      <point x="334" y="72" type="line"/>
      <point x="321" y="85" type="line"/>
      <point x="229" y="13" type="line"/>
    </contour>
    <contour>
      <point x="416" y="0" type="line"/>
      <point x="429" y="13" type="line"/>
      <point x="337" y="85" type="line"/>
      <point x="324" y="72" type="line"/>
    </contour>
    <contour>
      <point x="229" y="265" type="line"/>
      <point x="249" y="265" type="line"/>
      <point x="249" y="350" type="line"/>
      <point x="229" y="350" type="line"/>
    </contour>
    <contour>
      <point x="319" y="70" type="line"/>
      <point x="339" y="70" type="line"/>
      <point x="339" y="304" type="line"/>
      <point x="319" y="304" type="line"/>
    </contour>
    <contour>
      <point x="321" y="290" type="line"/>
      <point x="334" y="305" type="line"/>
      <point x="247" y="340" type="line"/>
      <point x="234" y="327" type="line"/>
    </contour>
    <contour>
      <point x="234" y="330" type="line"/>
      <point x="429" y="330" type="line"/>
      <point x="429" y="350" type="line"/>
      <point x="234" y="350" type="line"/>
    </contour>
    <contour>
      <point x="336" y="290" type="line"/>
      <point x="429" y="327" type="line"/>
      <point x="416" y="340" type="line"/>
      <point x="323" y="305" type="line"/>
    </contour>
    <contour>
      <point x="244" y="276" type="line"/>
      <point x="228" y="264" type="line"/>
      <point x="319" y="183" type="line"/>
      <point x="333" y="196" type="line"/>
    </contour>
    <contour>
      <point x="318" y="189" type="line"/>
      <point x="232" y="112" type="line"/>
      <point x="247" y="97" type="line"/>
      <point x="332" y="176" type="line"/>
    </contour>
    <contour>
      <point x="187" y="274" type="line"/>
      <point x="101" y="190" type="line"/>
      <point x="116" y="177" type="line"/>
      <point x="202" y="261" type="line"/>
    </contour>
    <contour>
      <point x="431" y="270" type="line"/>
      <point x="431" y="350" type="line"/>
      <point x="411" y="350" type="line"/>
      <point x="411" y="270" type="line"/>
    </contour>
    <contour>
      <point x="418" y="278" type="line"/>
      <point x="325" y="193" type="line"/>
      <point x="339" y="181" type="line"/>
      <point x="431" y="264" type="line"/>
    </contour>
    <contour>
      <point x="338" y="190" type="line"/>
      <point x="324" y="177" type="line"/>
      <point x="416" y="97" type="line"/>
      <point x="431" y="110" type="line"/>
    </contour>
    <contour>
      <point x="485" y="119" type="line"/>
      <point x="416" y="119" type="line"/>
      <point x="416" y="99" type="line"/>
      <point x="485" y="99" type="line"/>
    </contour>
    <contour>
      <point x="481" y="274" type="line"/>
      <point x="420" y="274" type="line"/>
      <point x="420" y="257" type="line"/>
      <point x="481" y="257" type="line"/>
    </contour>
    <contour>
      <point x="229" y="10" type="line"/>
      <point x="249" y="10" type="line"/>
      <point x="249" y="110" type="line"/>
      <point x="229" y="110" type="line"/>
    </contour>
    <contour>
      <point x="431" y="0" type="line"/>
      <point x="431" y="110" type="line"/>
      <point x="411" y="110" type="line"/>
      <point x="411" y="0" type="line"/>
    </contour>
    <contour>
      <point x="463" y="270" type="line"/>
      <point x="405" y="193" type="line"/>
      <point x="418" y="180" type="line"/>
      <point x="478" y="259" type="line"/>
    </contour>
    <contour>
      <point x="419" y="192" type="line"/>
      <point x="404" y="181" type="line"/>
      <point x="465" y="106" type="line"/>
      <point x="478" y="118" type="line"/>
    </contour>
    <contour>
      <point x="110" y="177" type="line"/>
      <point x="419" y="177" type="line"/>
      <point x="419" y="197" type="line"/>
      <point x="110" y="197" type="line"/>
    </contour>
    <contour>
      <point x="104" y="177" type="line"/>
      <point x="119" y="188" type="line"/>
      <point x="27" y="349" type="line"/>
      <point x="20" y="327" type="line"/>
    </contour>
  </outline>
</glyph>
<glyph name="five" format="2">
  <advance width="501"/>
  <unicode hex="0035"/>
  <outline>
    <contour>
      <point x="456" y="580" type="line"/>
      <point x="456" y="600" type="line"/>
      <point x="66" y="600" type="line"/>
      <point x="66" y="580" type="line"/>
    </contour>
    <contour>
      <point x="436" y="424" type="line"/>
      <point x="456" y="424" type="line"/>
      <point x="456" y="589" type="line"/>
      <point x="436" y="589" type="line"/>
    </contour>
    <contour>
      <point x="451" y="424" type="line"/>
      <point x="451" y="444" type="line"/>
      <point x="198" y="444" type="line"/>
      <point x="198" y="424" type="line"/>
    </contour>
    <contour>
      <point x="192" y="425" type="line"/>
      <point x="207" y="436" type="line"/>
      <point x="139" y="513" type="line"/>
      <point x="125" y="501" type="line"/>
    </contour>
    <contour>
      <point x="361" y="499" type="line"/>
      <point x="361" y="519" type="line"/>
      <point x="127" y="519" type="line"/>
      <point x="127" y="499" type="line"/>
    </contour>
    <contour>
      <point x="437" y="432" type="line"/>
      <point x="451" y="444" type="line"/>
      <point x="361" y="518" type="line"/>
      <point x="348" y="506" type="line"/>
    </contour>
    <contour>
      <point x="125" y="501" type="line"/>
      <point x="139" y="513" type="line"/>
      <point x="84" y="590" type="line"/>
      <point x="70" y="578" type="line"/>
    </contour>
    <contour>
      <point x="361" y="500" type="line"/>
      <point x="447" y="580" type="line"/>
      <point x="435" y="592" type="line"/>
      <point x="348" y="513" type="line"/>
    </contour>
    <contour>
      <point x="18" y="258" type="line"/>
      <point x="38" y="258" type="line"/>
      <point x="81" y="600" type="line"/>
      <point x="61" y="600" type="line"/>
    </contour>
    <contour>
      <point x="491" y="301" type="line"/>
      <point x="471" y="300" type="line"/>
      <point x="471" y="104" type="line"/>
      <point x="491" y="104" type="line"/>
    </contour>
    <contour>
      <point x="385" y="290" type="line"/>
      <point x="365" y="290" type="line"/>
      <point x="365" y="134" type="line"/>
      <point x="385" y="134" type="line"/>
    </contour>
    <contour>
      <point x="285" y="188" type="line"/>
      <point x="276" y="172" type="line"/>
      <point x="368" y="132" type="line"/>
      <point x="377" y="148" type="line"/>
    </contour>
    <contour>
      <point x="480" y="120" type="line"/>
      <point x="353" y="15" type="line"/>
      <point x="365" y="-1" type="line"/>
      <point x="491" y="104" type="line"/>
    </contour>
    <contour>
      <point x="293" y="242" type="line"/>
      <point x="273" y="242" type="line"/>
      <point x="273" y="174" type="line"/>
      <point x="293" y="174" type="line"/>
    </contour>
    <contour>
      <point x="374" y="149" type="line"/>
      <point x="284" y="90" type="line"/>
      <point x="295" y="75" type="line"/>
      <point x="385" y="134" type="line"/>
    </contour>
    <contour>
      <point x="280" y="190" type="line"/>
      <point x="253" y="168" type="line"/>
      <point x="265" y="152" type="line"/>
      <point x="293" y="174" type="line"/>
    </contour>
    <contour>
      <point x="265" y="173" type="line"/>
      <point x="225" y="173" type="line"/>
      <point x="225" y="152" type="line"/>
      <point x="265" y="152" type="line"/>
    </contour>
    <contour>
      <point x="214" y="203" type="line"/>
      <point x="194" y="203" type="line"/>
      <point x="194" y="175" type="line"/>
      <point x="214" y="175" type="line"/>
    </contour>
    <contour>
      <point x="205" y="190" type="line"/>
      <point x="193" y="175" type="line"/>
      <point x="225" y="152" type="line"/>
      <point x="236" y="167" type="line"/>
    </contour>
    <contour>
      <point x="240" y="166" type="line"/>
      <point x="222" y="172" type="line"/>
      <point x="160" y="88" type="line"/>
      <point x="180" y="88" type="line"/>
    </contour>
    <contour>
      <point x="295" y="95" type="line"/>
      <point x="170" y="95" type="line"/>
      <point x="170" y="75" type="line"/>
      <point x="295" y="75" type="line"/>
    </contour>
    <contour>
      <point x="214" y="218" type="line"/>
      <point x="10" y="218" type="line"/>
      <point x="10" y="198" type="line"/>
      <point x="214" y="198" type="line"/>
    </contour>
    <contour>
      <point x="117" y="157" type="line"/>
      <point x="106" y="142" type="line"/>
      <point x="164" y="78" type="line"/>
      <point x="176" y="94" type="line"/>
    </contour>
    <contour>
      <point x="365" y="19" type="line"/>
      <point x="139" y="19" type="line"/>
      <point x="139" y="-1" type="line"/>
      <point x="365" y="-1" type="line"/>
    </contour>
    <contour>
      <point x="105" y="140" type="line"/>
      <point x="97" y="156" type="line"/>
      <point x="19" y="134" type="line"/>
      <point x="26" y="118" type="line"/>
    </contour>
    <contour>
      <point x="163" y="89" type="line"/>
      <point x="133" y="10" type="line"/>
      <point x="151" y="4" type="line"/>
      <point x="182" y="83" type="line"/>
    </contour>
    <contour>
      <point x="30" y="208" type="line"/>
      <point x="10" y="208" type="line"/>
      <point x="10" y="123" type="line"/>
      <point x="30" y="123" type="line"/>
    </contour>
    <contour>
      <point x="23" y="138" type="line"/>
      <point x="10" y="123" type="line"/>
      <point x="139" y="-1" type="line"/>
      <point x="152" y="14" type="line"/>
    </contour>
    <contour>
      <point x="97" y="156" type="line"/>
      <point x="105" y="140" type="line"/>
      <point x="207" y="173" type="line"/>
      <point x="200" y="189" type="line"/>
    </contour>
    <contour>
      <point x="376" y="149" type="line"/>
      <point x="373" y="130" type="line"/>
      <point x="478" y="101" type="line"/>
      <point x="482" y="120" type="line"/>
    </contour>
    <contour>
      <point x="267" y="168" type="line"/>
      <point x="250" y="162" type="line"/>
      <point x="283" y="80" type="line"/>
      <point x="300" y="86" type="line"/>
    </contour>
    <contour>
      <point x="294" y="93" type="line"/>
      <point x="279" y="83" type="line"/>
      <point x="355" y="8" type="line"/>
      <point x="370" y="18" type="line"/>
    </contour>
    <contour>
      <point x="102" y="337" type="line"/>
      <point x="122" y="337" type="line"/>
      <point x="140" y="519" type="line"/>
      <point x="120" y="519" type="line"/>
    </contour>
    <contour>
      <point x="189" y="399" type="line"/>
      <point x="209" y="399" type="line"/>
      <point x="209" y="444" type="line"/>
      <point x="189" y="444" type="line"/>
    </contour>
    <contour>
      <point x="110" y="354" type="line"/>
      <point x="28" y="273" type="line"/>
      <point x="41" y="261" type="line"/>
      <point x="123" y="342" type="line"/>
    </contour>
    <contour>
      <point x="121" y="350" type="line"/>
      <point x="110" y="337" type="line"/>
      <point x="255" y="263" type="line"/>
      <point x="265" y="276" type="line"/>
    </contour>
    <contour>
      <point x="263" y="258" type="line"/>
      <point x="263" y="276" type="line"/>
      <point x="24" y="276" type="line"/>
      <point x="24" y="258" type="line"/>
    </contour>
    <contour>
      <point x="285" y="226" type="line"/>
      <point x="379" y="275" type="line"/>
      <point x="371" y="292" type="line"/>
      <point x="277" y="243" type="line"/>
    </contour>
    <contour>
      <point x="280" y="229" type="line"/>
      <point x="293" y="242" type="line"/>
      <point x="263" y="276" type="line"/>
      <point x="250" y="263" type="line"/>
    </contour>
    <contour>
      <point x="357" y="393" type="line"/>
      <point x="357" y="413" type="line"/>
      <point x="189" y="413" type="line"/>
      <point x="189" y="393" type="line"/>
    </contour>
    <contour>
      <point x="480" y="285" type="line"/>
      <point x="491" y="301" type="line"/>
      <point x="357" y="413" type="line"/>
      <point x="345" y="397" type="line"/>
    </contour>
    <contour>
      <point x="263" y="258" type="line"/>
      <point x="311" y="342" type="line"/>
      <point x="296" y="350" type="line"/>
      <point x="246" y="265" type="line"/>
    </contour>
    <contour>
      <point x="372" y="275" type="line"/>
      <point x="385" y="290" type="line"/>
      <point x="307" y="357" type="line"/>
      <point x="294" y="341" type="line"/>
    </contour>
    <contour>
      <point x="377" y="274" type="line"/>
      <point x="478" y="285" type="line"/>
      <point x="475" y="304" type="line"/>
      <point x="373" y="293" type="line"/>
    </contour>
    <contour>
      <point x="307" y="357" type="line"/>
      <point x="110" y="357" type="line"/>
      <point x="110" y="337" type="line"/>
      <point x="307" y="337" type="line"/>
    </contour>
    <contour>
      <point x="192" y="409" type="line"/>
      <point x="114" y="360" type="line"/>
      <point x="124" y="346" type="line"/>
      <point x="202" y="395" type="line"/>
    </contour>
    <contour>
      <point x="352" y="409" type="line"/>
      <point x="294" y="352" type="line"/>
      <point x="309" y="341" type="line"/>
      <point x="367" y="399" type="line"/>
    </contour>
  </outline>
</glyph>
<glyph name="seven" format="2">
  <advance width="415"/>
  <unicode hex="0037"/>
  <outline>
    <contour>
      <point x="27" y="0" type="line"/>
      <point x="49" y="0" type="line"/>
      <point x="240" y="402" type="line"/>
      <point x="222" y="412" type="line"/>
    </contour>
    <contour>
      <point x="42" y="0" type="line"/>
      <point x="280" y="0" type="line"/>
      <point x="280" y="20" type="line"/>
      <point x="42" y="20" type="line"/>
    </contour>
    <contour>
      <point x="58" y="7" type="line"/>
      <point x="201" y="108" type="line"/>
      <point x="190" y="124" type="line"/>
      <point x="47" y="22" type="line"/>
    </contour>
    <contour>
      <point x="260" y="6" type="line"/>
      <point x="278" y="17" type="line"/>
      <point x="201" y="122" type="line"/>
      <point x="184" y="111" type="line"/>
    </contour>
    <contour>
      <point x="5" y="402" type="line"/>
      <point x="25" y="402" type="line"/>
      <point x="25" y="589" type="line"/>
      <point x="5" y="589" type="line"/>
    </contour>
    <contour>
      <point x="24" y="407" type="line"/>
      <point x="115" y="501" type="line"/>
      <point x="100" y="512" type="line"/>
      <point x="10" y="419" type="line"/>
    </contour>
    <contour>
      <point x="10" y="402" type="line"/>
      <point x="240" y="402" type="line"/>
      <point x="240" y="422" type="line"/>
      <point x="10" y="422" type="line"/>
    </contour>
    <contour>
      <point x="280" y="0" type="line"/>
      <point x="410" y="445" type="line"/>
      <point x="391" y="449" type="line"/>
      <point x="260" y="9" type="line"/>
    </contour>
    <contour>
      <point x="180" y="111" type="line"/>
      <point x="202" y="111" type="line"/>
      <point x="348" y="496" type="line"/>
      <point x="327" y="501" type="line"/>
    </contour>
    <contour>
      <point x="101" y="497" type="line"/>
      <point x="115" y="510" type="line"/>
      <point x="24" y="594" type="line"/>
      <point x="11" y="582" type="line"/>
    </contour>
    <contour>
      <point x="100" y="496" type="line"/>
      <point x="348" y="496" type="line"/>
      <point x="348" y="516" type="line"/>
      <point x="100" y="516" type="line"/>
    </contour>
    <contour>
      <point x="240" y="402" type="line"/>
      <point x="341" y="496" type="line"/>
      <point x="329" y="511" type="line"/>
      <point x="225" y="417" type="line"/>
    </contour>
    <contour>
      <point x="5" y="580" type="line"/>
      <point x="405" y="580" type="line"/>
      <point x="405" y="600" type="line"/>
      <point x="5" y="600" type="line"/>
    </contour>
    <contour>
      <point x="392" y="431" type="line"/>
      <point x="405" y="446" type="line"/>
      <point x="347" y="509" type="line"/>
      <point x="334" y="494" type="line"/>
    </contour>
    <contour>
      <point x="343" y="496" type="line"/>
      <point x="404" y="581" type="line"/>
      <point x="387" y="593" type="line"/>
      <point x="326" y="509" type="line"/>
    </contour>
    <contour>
      <point x="390" y="445" type="line"/>
      <point x="410" y="445" type="line"/>
      <point x="410" y="600" type="line"/>
      <point x="390" y="600" type="line"/>
    </contour>
  </outline>
</glyph>
<glyph name="eight" format="2">
  <advance width="496"/>
  <unicode hex="0038"/>
  <outline>
    <contour>
      <point x="308" y="291" type="line"/>
      <point x="486" y="381" type="line"/>
      <point x="475" y="397" type="line"/>
      <point x="301" y="309" type="line"/>
    </contour>
    <contour>
      <point x="129" y="-1" type="line"/>
      <point x="142" y="14" type="line"/>
      <point x="22" y="90" type="line"/>
      <point x="10" y="74" type="line"/>
    </contour>
    <contour>
      <point x="26" y="73" type="line"/>
      <point x="103" y="100" type="line"/>
      <point x="95" y="116" type="line"/>
      <point x="19" y="89" type="line"/>
    </contour>
    <contour>
      <point x="10" y="74" type="line"/>
      <point x="30" y="74" type="line"/>
      <point x="30" y="221" type="line"/>
      <point x="10" y="221" type="line"/>
    </contour>
    <contour>
      <point x="139" y="4" type="line"/>
      <point x="184" y="62" type="line"/>
      <point x="168" y="72" type="line"/>
      <point x="123" y="13" type="line"/>
    </contour>
    <contour>
      <point x="172" y="55" type="line"/>
      <point x="183" y="70" type="line"/>
      <point x="101" y="119" type="line"/>
      <point x="90" y="104" type="line"/>
    </contour>
    <contour>
      <point x="129" y="-1" type="line"/>
      <point x="367" y="-1" type="line"/>
      <point x="367" y="19" type="line"/>
      <point x="129" y="19" type="line"/>
    </contour>
    <contour>
      <point x="90" y="104" type="line"/>
      <point x="110" y="104" type="line"/>
      <point x="110" y="215" type="line"/>
      <point x="90" y="215" type="line"/>
    </contour>
    <contour>
      <point x="103" y="199" type="line"/>
      <point x="103" y="218" type="line"/>
      <point x="20" y="222" type="line"/>
      <point x="20" y="204" type="line"/>
    </contour>
    <contour>
      <point x="106" y="102" type="line"/>
      <point x="212" y="156" type="line"/>
      <point x="204" y="173" type="line"/>
      <point x="99" y="119" type="line"/>
    </contour>
    <contour>
      <point x="179" y="58" type="line"/>
      <point x="240" y="133" type="line"/>
      <point x="226" y="142" type="line"/>
      <point x="164" y="68" type="line"/>
    </contour>
    <contour>
      <point x="172" y="55" type="line"/>
      <point x="324" y="55" type="line"/>
      <point x="324" y="75" type="line"/>
      <point x="172" y="75" type="line"/>
    </contour>
    <contour>
      <point x="21" y="205" type="line"/>
      <point x="195" y="293" type="line"/>
      <point x="188" y="311" type="line"/>
      <point x="10" y="221" type="line"/>
    </contour>
    <contour>
      <point x="206" y="196" type="line"/>
      <point x="207" y="216" type="line"/>
      <point x="106" y="217" type="line"/>
      <point x="106" y="198" type="line"/>
    </contour>
    <contour>
      <point x="228" y="127" type="line"/>
      <point x="241" y="140" type="line"/>
      <point x="209" y="173" type="line"/>
      <point x="196" y="161" type="line"/>
    </contour>
    <contour>
      <point x="357" y="4" type="line"/>
      <point x="373" y="13" type="line"/>
      <point x="328" y="72" type="line"/>
      <point x="312" y="62" type="line"/>
    </contour>
    <contour>
      <point x="228" y="127" type="line"/>
      <point x="268" y="127" type="line"/>
      <point x="268" y="148" type="line"/>
      <point x="228" y="148" type="line"/>
    </contour>
    <contour>
      <point x="196" y="160" type="line"/>
      <point x="216" y="160" type="line"/>
      <point x="216" y="211" type="line"/>
      <point x="196" y="211" type="line"/>
    </contour>
    <contour>
      <point x="317" y="58" type="line"/>
      <point x="332" y="68" type="line"/>
      <point x="270" y="142" type="line"/>
      <point x="256" y="133" type="line"/>
    </contour>
    <contour>
      <point x="105" y="202" type="line"/>
      <point x="200" y="296" type="line"/>
      <point x="188" y="311" type="line"/>
      <point x="90" y="215" type="line"/>
    </contour>
    <contour>
      <point x="268" y="127" type="line"/>
      <point x="300" y="161" type="line"/>
      <point x="287" y="173" type="line"/>
      <point x="255" y="140" type="line"/>
    </contour>
    <contour>
      <point x="208" y="196" type="line"/>
      <point x="241" y="224" type="line"/>
      <point x="228" y="239" type="line"/>
      <point x="196" y="211" type="line"/>
    </contour>
    <contour>
      <point x="324" y="55" type="line"/>
      <point x="406" y="104" type="line"/>
      <point x="395" y="119" type="line"/>
      <point x="313" y="70" type="line"/>
    </contour>
    <contour>
      <point x="188" y="291" type="line"/>
      <point x="195" y="309" type="line"/>
      <point x="21" y="397" type="line"/>
      <point x="10" y="381" type="line"/>
    </contour>
    <contour>
      <point x="20" y="380" type="line"/>
      <point x="103" y="384" type="line"/>
      <point x="103" y="403" type="line"/>
      <point x="20" y="398" type="line"/>
    </contour>
    <contour>
      <point x="367" y="-1" type="line"/>
      <point x="486" y="74" type="line"/>
      <point x="474" y="90" type="line"/>
      <point x="354" y="14" type="line"/>
    </contour>
    <contour>
      <point x="10" y="381" type="line"/>
      <point x="30" y="381" type="line"/>
      <point x="30" y="528" type="line"/>
      <point x="10" y="528" type="line"/>
    </contour>
    <contour>
      <point x="280" y="160" type="line"/>
      <point x="300" y="160" type="line"/>
      <point x="300" y="211" type="line"/>
      <point x="280" y="211" type="line"/>
    </contour>
    <contour>
      <point x="223" y="222" type="line"/>
      <point x="241" y="230" type="line"/>
      <point x="202" y="304" type="line"/>
      <point x="187" y="297" type="line"/>
    </contour>
    <contour>
      <point x="228" y="219" type="line"/>
      <point x="268" y="219" type="line"/>
      <point x="268" y="239" type="line"/>
      <point x="228" y="239" type="line"/>
    </contour>
    <contour>
      <point x="390" y="102" type="line"/>
      <point x="397" y="119" type="line"/>
      <point x="292" y="173" type="line"/>
      <point x="284" y="156" type="line"/>
    </contour>
    <contour>
      <point x="188" y="291" type="line"/>
      <point x="200" y="306" type="line"/>
      <point x="105" y="400" type="line"/>
      <point x="90" y="387" type="line"/>
    </contour>
    <contour>
      <point x="288" y="196" type="line"/>
      <point x="300" y="211" type="line"/>
      <point x="268" y="239" type="line"/>
      <point x="255" y="224" type="line"/>
    </contour>
    <contour>
      <point x="470" y="73" type="line"/>
      <point x="477" y="89" type="line"/>
      <point x="401" y="116" type="line"/>
      <point x="393" y="100" type="line"/>
    </contour>
    <contour>
      <point x="90" y="387" type="line"/>
      <point x="110" y="387" type="line"/>
      <point x="110" y="498" type="line"/>
      <point x="90" y="498" type="line"/>
    </contour>
    <contour>
      <point x="273" y="222" type="line"/>
      <point x="309" y="297" type="line"/>
      <point x="294" y="304" type="line"/>
      <point x="255" y="230" type="line"/>
    </contour>
    <contour>
      <point x="290" y="196" type="line"/>
      <point x="390" y="198" type="line"/>
      <point x="390" y="217" type="line"/>
      <point x="289" y="216" type="line"/>
    </contour>
    <contour>
      <point x="188" y="291" type="line"/>
      <point x="308" y="291" type="line"/>
      <point x="308" y="311" type="line"/>
      <point x="188" y="311" type="line"/>
    </contour>
    <contour>
      <point x="106" y="385" type="line"/>
      <point x="207" y="386" type="line"/>
      <point x="206" y="406" type="line"/>
      <point x="106" y="404" type="line"/>
    </contour>
    <contour>
      <point x="202" y="298" type="line"/>
      <point x="241" y="372" type="line"/>
      <point x="223" y="380" type="line"/>
      <point x="187" y="305" type="line"/>
    </contour>
    <contour>
      <point x="386" y="104" type="line"/>
      <point x="406" y="104" type="line"/>
      <point x="406" y="215" type="line"/>
      <point x="386" y="215" type="line"/>
    </contour>
    <contour>
      <point x="95" y="486" type="line"/>
      <point x="103" y="502" type="line"/>
      <point x="26" y="529" type="line"/>
      <point x="19" y="513" type="line"/>
    </contour>
    <contour>
      <point x="228" y="363" type="line"/>
      <point x="241" y="378" type="line"/>
      <point x="208" y="406" type="line"/>
      <point x="196" y="391" type="line"/>
    </contour>
    <contour>
      <point x="391" y="202" type="line"/>
      <point x="406" y="215" type="line"/>
      <point x="308" y="311" type="line"/>
      <point x="296" y="296" type="line"/>
    </contour>
    <contour>
      <point x="204" y="429" type="line"/>
      <point x="212" y="446" type="line"/>
      <point x="106" y="500" type="line"/>
      <point x="99" y="483" type="line"/>
    </contour>
    <contour>
      <point x="228" y="363" type="line"/>
      <point x="268" y="363" type="line"/>
      <point x="268" y="383" type="line"/>
      <point x="228" y="383" type="line"/>
    </contour>
    <contour>
      <point x="294" y="298" type="line"/>
      <point x="309" y="305" type="line"/>
      <point x="273" y="380" type="line"/>
      <point x="255" y="372" type="line"/>
    </contour>
    <contour>
      <point x="196" y="391" type="line"/>
      <point x="216" y="391" type="line"/>
      <point x="216" y="442" type="line"/>
      <point x="196" y="442" type="line"/>
    </contour>
    <contour>
      <point x="466" y="74" type="line"/>
      <point x="486" y="74" type="line"/>
      <point x="486" y="221" type="line"/>
      <point x="466" y="221" type="line"/>
    </contour>
    <contour>
      <point x="22" y="512" type="line"/>
      <point x="142" y="585" type="line"/>
      <point x="129" y="600" type="line"/>
      <point x="10" y="528" type="line"/>
    </contour>
    <contour>
      <point x="393" y="199" type="line"/>
      <point x="476" y="204" type="line"/>
      <point x="476" y="222" type="line"/>
      <point x="393" y="218" type="line"/>
    </contour>
    <contour>
      <point x="475" y="205" type="line"/>
      <point x="486" y="221" type="line"/>
      <point x="308" y="311" type="line"/>
      <point x="301" y="293" type="line"/>
    </contour>
    <contour>
      <point x="101" y="483" type="line"/>
      <point x="183" y="532" type="line"/>
      <point x="172" y="547" type="line"/>
      <point x="90" y="498" type="line"/>
    </contour>
    <contour>
      <point x="268" y="363" type="line"/>
      <point x="300" y="391" type="line"/>
      <point x="288" y="406" type="line"/>
      <point x="255" y="378" type="line"/>
    </contour>
    <contour>
      <point x="209" y="429" type="line"/>
      <point x="241" y="462" type="line"/>
      <point x="228" y="475" type="line"/>
      <point x="196" y="441" type="line"/>
    </contour>
    <contour>
      <point x="308" y="291" type="line"/>
      <point x="406" y="387" type="line"/>
      <point x="391" y="400" type="line"/>
      <point x="296" y="306" type="line"/>
    </contour>
    <contour>
      <point x="226" y="460" type="line"/>
      <point x="240" y="469" type="line"/>
      <point x="179" y="544" type="line"/>
      <point x="164" y="534" type="line"/>
    </contour>
    <contour>
      <point x="280" y="391" type="line"/>
      <point x="300" y="391" type="line"/>
      <point x="300" y="442" type="line"/>
      <point x="280" y="442" type="line"/>
    </contour>
    <contour>
      <point x="228" y="454" type="line"/>
      <point x="268" y="454" type="line"/>
      <point x="268" y="475" type="line"/>
      <point x="228" y="475" type="line"/>
    </contour>
    <contour>
      <point x="168" y="530" type="line"/>
      <point x="184" y="540" type="line"/>
      <point x="139" y="595" type="line"/>
      <point x="123" y="586" type="line"/>
    </contour>
    <contour>
      <point x="287" y="429" type="line"/>
      <point x="300" y="441" type="line"/>
      <point x="268" y="475" type="line"/>
      <point x="255" y="462" type="line"/>
    </contour>
    <contour>
      <point x="390" y="385" type="line"/>
      <point x="390" y="404" type="line"/>
      <point x="290" y="406" type="line"/>
      <point x="289" y="386" type="line"/>
    </contour>
    <contour>
      <point x="172" y="527" type="line"/>
      <point x="324" y="527" type="line"/>
      <point x="324" y="547" type="line"/>
      <point x="172" y="547" type="line"/>
    </contour>
    <contour>
      <point x="270" y="460" type="line"/>
      <point x="332" y="534" type="line"/>
      <point x="317" y="544" type="line"/>
      <point x="256" y="469" type="line"/>
    </contour>
    <contour>
      <point x="292" y="429" type="line"/>
      <point x="397" y="483" type="line"/>
      <point x="390" y="500" type="line"/>
      <point x="284" y="446" type="line"/>
    </contour>
    <contour>
      <point x="476" y="380" type="line"/>
      <point x="476" y="398" type="line"/>
      <point x="393" y="403" type="line"/>
      <point x="393" y="384" type="line"/>
    </contour>
    <contour>
      <point x="386" y="387" type="line"/>
      <point x="406" y="387" type="line"/>
      <point x="406" y="498" type="line"/>
      <point x="386" y="498" type="line"/>
    </contour>
    <contour>
      <point x="129" y="580" type="line"/>
      <point x="367" y="580" type="line"/>
      <point x="367" y="600" type="line"/>
      <point x="129" y="600" type="line"/>
    </contour>
    <contour>
      <point x="395" y="483" type="line"/>
      <point x="406" y="498" type="line"/>
      <point x="324" y="547" type="line"/>
      <point x="313" y="532" type="line"/>
    </contour>
    <contour>
      <point x="328" y="530" type="line"/>
      <point x="373" y="586" type="line"/>
      <point x="357" y="595" type="line"/>
      <point x="312" y="540" type="line"/>
    </contour>
    <contour>
      <point x="466" y="381" type="line"/>
      <point x="486" y="381" type="line"/>
      <point x="486" y="528" type="line"/>
      <point x="466" y="528" type="line"/>
    </contour>
    <contour>
      <point x="401" y="486" type="line"/>
      <point x="477" y="513" type="line"/>
      <point x="470" y="529" type="line"/>
      <point x="393" y="502" type="line"/>
    </contour>
    <contour>
      <point x="474" y="512" type="line"/>
      <point x="486" y="528" type="line"/>
      <point x="367" y="600" type="line"/>
      <point x="354" y="585" type="line"/>
    </contour>
  </outline>
</glyph>
<glyph name="colon" format="2">
  <advance width="195"/>
  <unicode hex="003A"/>
  <outline>
    <contour>
      <point x="15" y="64" type="line"/>
      <point x="180" y="64" type="line"/>
      <point x="180" y="82" type="line"/>
      <point x="15" y="82" type="line"/>
    </contour>
    <contour>
      <point x="29" y="64" type="line"/>
      <point x="100" y="133" type="line"/>
      <point x="91" y="153" type="line"/>
      <point x="15" y="78" type="line"/>
    </contour>
    <contour>
      <point x="166" y="64" type="line"/>
      <point x="180" y="78" type="line"/>
      <point x="103" y="154" type="line"/>
      <point x="94" y="134" type="line"/>
    </contour>
    <contour>
      <point x="15" y="64" type="line"/>
      <point x="35" y="64" type="line"/>
      <point x="35" y="229" type="line"/>
      <point x="15" y="229" type="line"/>
    </contour>
    <contour>
      <point x="91" y="138" type="line"/>
      <point x="104" y="138" type="line"/>
      <point x="104" y="155" type="line"/>
      <point x="91" y="155" type="line"/>
    </contour>
    <contour>
      <point x="160" y="64" type="line"/>
      <point x="180" y="64" type="line"/>
      <point x="180" y="229" type="line"/>
      <point x="160" y="229" type="line"/>
    </contour>
    <contour>
      <point x="92" y="140" type="line"/>
      <point x="101" y="160" type="line"/>
      <point x="29" y="229" type="line"/>
      <point x="15" y="215" type="line"/>
    </contour>
    <contour>
      <point x="18" y="211" type="line"/>
      <point x="180" y="211" type="line"/>
      <point x="180" y="229" type="line"/>
      <point x="18" y="229" type="line"/>
    </contour>
    <contour>
      <point x="103" y="140" type="line"/>
      <point x="179" y="215" type="line"/>
      <point x="165" y="229" type="line"/>
      <point x="94" y="160" type="line"/>
    </contour>
    <contour>
      <point x="15" y="264" type="line"/>
      <point x="180" y="264" type="line"/>
      <point x="180" y="282" type="line"/>
      <point x="15" y="282" type="line"/>
    </contour>
    <contour>
      <point x="29" y="264" type="line"/>
      <point x="100" y="333" type="line"/>
      <point x="91" y="353" type="line"/>
      <point x="15" y="278" type="line"/>
    </contour>
    <contour>
      <point x="166" y="264" type="line"/>
      <point x="180" y="278" type="line"/>
      <point x="103" y="354" type="line"/>
      <point x="94" y="334" type="line"/>
    </contour>
    <contour>
      <point x="15" y="264" type="line"/>
      <point x="35" y="264" type="line"/>
      <point x="35" y="429" type="line"/>
      <point x="15" y="429" type="line"/>
    </contour>
    <contour>
      <point x="91" y="338" type="line"/>
      <point x="104" y="338" type="line"/>
      <point x="104" y="355" type="line"/>
      <point x="91" y="355" type="line"/>
    </contour>
    <contour>
      <point x="160" y="264" type="line"/>
      <point x="180" y="264" type="line"/>
      <point x="180" y="429" type="line"/>
      <point x="160" y="429" type="line"/>
    </contour>
    <contour>
      <point x="92" y="340" type="line"/>
      <point x="101" y="360" type="line"/>
      <point x="29" y="429" type="line"/>
      <point x="15" y="415" type="line"/>
    </contour>
    <contour>
      <point x="18" y="411" type="line"/>
      <point x="180" y="411" type="line"/>
      <point x="180" y="429" type="line"/>
      <point x="18" y="429" type="line"/>
    </contour>
    <contour>
      <point x="103" y="340" type="line"/>
      <point x="179" y="415" type="line"/>
      <point x="165" y="429" type="line"/>
      <point x="94" y="360" type="line"/>
    </contour>
  </outline>
</glyph>
<glyph name="question" format="2">
  <advance width="401"/>
  <unicode hex="003F"/>
  <outline>
    <contour>
      <point x="200" y="310" type="line"/>
      <point x="315" y="405" type="line"/>
      <point x="305" y="421" type="line"/>
      <point x="190" y="325" type="line"/>
    </contour>
    <contour>
      <point x="255" y="274" type="line"/>
      <point x="396" y="361" type="line"/>
      <point x="384" y="377" type="line"/>
      <point x="243" y="290" type="line"/>
    </contour>
    <contour>
      <point x="241" y="190" type="line"/>
      <point x="265" y="291" type="line"/>
      <point x="245" y="291" type="line"/>
      <point x="221" y="190" type="line"/>
    </contour>
    <contour>
      <point x="396" y="361" type="line"/>
      <point x="396" y="515" type="line"/>
      <point x="376" y="515" type="line"/>
      <point x="376" y="361" type="line"/>
    </contour>
    <contour>
      <point x="169" y="190" type="line"/>
      <point x="210" y="190" type="line"/>
      <point x="210" y="209" type="line"/>
      <point x="169" y="209" type="line"/>
    </contour>
    <contour>
      <point x="209" y="197" type="line"/>
      <point x="209" y="325" type="line"/>
      <point x="189" y="325" type="line"/>
      <point x="189" y="197" type="line"/>
    </contour>
    <contour>
      <point x="320" y="404" type="line"/>
      <point x="320" y="485" type="line"/>
      <point x="300" y="485" type="line"/>
      <point x="300" y="404" type="line"/>
    </contour>
    <contour>
      <point x="302" y="400" type="line"/>
      <point x="308" y="418" type="line"/>
      <point x="213" y="418" type="line"/>
      <point x="207" y="400" type="line"/>
    </contour>
    <contour>
      <point x="211" y="429" type="line"/>
      <point x="310" y="473" type="line"/>
      <point x="306" y="490" type="line"/>
      <point x="208" y="446" type="line"/>
    </contour>
    <contour>
      <point x="385" y="499" type="line"/>
      <point x="396" y="515" type="line"/>
      <point x="280" y="600" type="line"/>
      <point x="268" y="584" type="line"/>
    </contour>
    <contour>
      <point x="206" y="309" type="line"/>
      <point x="204" y="328" type="line"/>
      <point x="144" y="328" type="line"/>
      <point x="145" y="309" type="line"/>
    </contour>
    <contour>
      <point x="174" y="190" type="line"/>
      <point x="155" y="324" type="line"/>
      <point x="135" y="325" type="line"/>
      <point x="154" y="190" type="line"/>
    </contour>
    <contour>
      <point x="228" y="404" type="line"/>
      <point x="228" y="448" type="line"/>
      <point x="208" y="448" type="line"/>
      <point x="208" y="404" type="line"/>
    </contour>
    <contour>
      <point x="310" y="470" type="line"/>
      <point x="322" y="485" type="line"/>
      <point x="250" y="544" type="line"/>
      <point x="238" y="529" type="line"/>
    </contour>
    <contour>
      <point x="145" y="309" type="line"/>
      <point x="228" y="403" type="line"/>
      <point x="218" y="419" type="line"/>
      <point x="135" y="325" type="line"/>
    </contour>
    <contour>
      <point x="215" y="432" type="line"/>
      <point x="226" y="447" type="line"/>
      <point x="200" y="467" type="line"/>
      <point x="190" y="452" type="line"/>
    </contour>
    <contour>
      <point x="200" y="446" type="line"/>
      <point x="200" y="467" type="line"/>
      <point x="170" y="467" type="line"/>
      <point x="170" y="446" type="line"/>
    </contour>
    <contour>
      <point x="159" y="406" type="line"/>
      <point x="159" y="444" type="line"/>
      <point x="139" y="444" type="line"/>
      <point x="139" y="406" type="line"/>
    </contour>
    <contour>
      <point x="148" y="429" type="line"/>
      <point x="179" y="452" type="line"/>
      <point x="168" y="467" type="line"/>
      <point x="137" y="444" type="line"/>
    </contour>
    <contour>
      <point x="183" y="453" type="line"/>
      <point x="155" y="531" type="line"/>
      <point x="135" y="531" type="line"/>
      <point x="164" y="446" type="line"/>
    </contour>
    <contour>
      <point x="248" y="524" type="line"/>
      <point x="250" y="544" type="line"/>
      <point x="145" y="544" type="line"/>
      <point x="145" y="524" type="line"/>
    </contour>
    <contour>
      <point x="159" y="391" type="line"/>
      <point x="159" y="411" type="line"/>
      <point x="5" y="411" type="line"/>
      <point x="5" y="391" type="line"/>
    </contour>
    <contour>
      <point x="82" y="462" type="line"/>
      <point x="151" y="525" type="line"/>
      <point x="139" y="541" type="line"/>
      <point x="71" y="477" type="line"/>
    </contour>
    <contour>
      <point x="280" y="580" type="line"/>
      <point x="280" y="600" type="line"/>
      <point x="114" y="600" type="line"/>
      <point x="117" y="580" type="line"/>
    </contour>
    <contour>
      <point x="83" y="475" type="line"/>
      <point x="21" y="501" type="line"/>
      <point x="14" y="485" type="line"/>
      <point x="75" y="459" type="line"/>
    </contour>
    <contour>
      <point x="141" y="520" type="line"/>
      <point x="160" y="526" type="line"/>
      <point x="126" y="595" type="line"/>
      <point x="108" y="589" type="line"/>
    </contour>
    <contour>
      <point x="25" y="411" type="line"/>
      <point x="25" y="493" type="line"/>
      <point x="5" y="496" type="line"/>
      <point x="5" y="411" type="line"/>
    </contour>
    <contour>
      <point x="15" y="478" type="line"/>
      <point x="127" y="585" type="line"/>
      <point x="114" y="600" type="line"/>
      <point x="5" y="496" type="line"/>
    </contour>
    <contour>
      <point x="75" y="459" type="line"/>
      <point x="145" y="430" type="line"/>
      <point x="152" y="446" type="line"/>
      <point x="83" y="475" type="line"/>
    </contour>
    <contour>
      <point x="309" y="473" type="line"/>
      <point x="390" y="499" type="line"/>
      <point x="386" y="517" type="line"/>
      <point x="306" y="491" type="line"/>
    </contour>
    <contour>
      <point x="383" y="359" type="line"/>
      <point x="389" y="376" type="line"/>
      <point x="309" y="419" type="line"/>
      <point x="303" y="401" type="line"/>
    </contour>
    <contour>
      <point x="257" y="274" type="line"/>
      <point x="263" y="292" type="line"/>
      <point x="210" y="327" type="line"/>
      <point x="204" y="310" type="line"/>
    </contour>
    <contour>
      <point x="198" y="190" type="line"/>
      <point x="237" y="190" type="line"/>
      <point x="237" y="209" type="line"/>
      <point x="198" y="209" type="line"/>
    </contour>
    <contour>
      <point x="115" y="0" type="line"/>
      <point x="280" y="0" type="line"/>
      <point x="280" y="18" type="line"/>
      <point x="115" y="18" type="line"/>
    </contour>
    <contour>
      <point x="129" y="0" type="line"/>
      <point x="200" y="69" type="line"/>
      <point x="191" y="89" type="line"/>
      <point x="115" y="14" type="line"/>
    </contour>
    <contour>
      <point x="266" y="0" type="line"/>
      <point x="280" y="14" type="line"/>
      <point x="203" y="90" type="line"/>
      <point x="194" y="70" type="line"/>
    </contour>
    <contour>
      <point x="115" y="0" type="line"/>
      <point x="135" y="0" type="line"/>
      <point x="135" y="165" type="line"/>
      <point x="115" y="165" type="line"/>
    </contour>
    <contour>
      <point x="191" y="74" type="line"/>
      <point x="204" y="74" type="line"/>
      <point x="204" y="91" type="line"/>
      <point x="191" y="91" type="line"/>
    </contour>
    <contour>
      <point x="260" y="0" type="line"/>
      <point x="280" y="0" type="line"/>
      <point x="280" y="165" type="line"/>
      <point x="260" y="165" type="line"/>
    </contour>
    <contour>
      <point x="192" y="76" type="line"/>
      <point x="201" y="96" type="line"/>
      <point x="129" y="165" type="line"/>
      <point x="115" y="151" type="line"/>
    </contour>
    <contour>
      <point x="118" y="147" type="line"/>
      <point x="280" y="147" type="line"/>
      <point x="280" y="165" type="line"/>
      <point x="118" y="165" type="line"/>
    </contour>
    <contour>
      <point x="203" y="76" type="line"/>
      <point x="279" y="151" type="line"/>
      <point x="265" y="165" type="line"/>
      <point x="194" y="96" type="line"/>
    </contour>
    <contour>
      <point x="210" y="449" type="line"/>
      <point x="257" y="533" type="line"/>
      <point x="239" y="539" type="line"/>
      <point x="191" y="455" type="line"/>
    </contour>
    <contour>
      <point x="254" y="526" type="line"/>
      <point x="293" y="585" type="line"/>
      <point x="275" y="591" type="line"/>
      <point x="235" y="532" type="line"/>
    </contour>
  </outline>
</glyph>
<glyph name="B" format="2">
  <advance width="559"/>
  <unicode hex="0042"/>
  <anchor x="282" y="0" name="bottom"/>
  <anchor x="282" y="300" name="center"/>
  <anchor x="282" y="600" name="top"/>
  <outline>
    <contour>
      <point x="10" y="2" type="line"/>
      <point x="30" y="2" type="line"/>
      <point x="30" y="600" type="line"/>
      <point x="10" y="600" type="line"/>
    </contour>
    <contour>
      <point x="98" y="95" type="line"/>
      <point x="118" y="95" type="line"/>
      <point x="118" y="523" type="line"/>
      <point x="98" y="523" type="line"/>
    </contour>
    <contour>
      <point x="211" y="366" type="line"/>
      <point x="231" y="366" type="line"/>
      <point x="231" y="442" type="line"/>
      <point x="211" y="442" type="line"/>
    </contour>
    <contour>
      <point x="211" y="160" type="line"/>
      <point x="231" y="160" type="line"/>
      <point x="231" y="242" type="line"/>
      <point x="211" y="242" type="line"/>
    </contour>
    <contour>
      <point x="534" y="90" type="line"/>
      <point x="554" y="90" type="line"/>
      <point x="554" y="226" type="line"/>
      <point x="534" y="226" type="line"/>
    </contour>
    <contour>
      <point x="531" y="380" type="line"/>
      <point x="551" y="380" type="line"/>
      <point x="551" y="519" type="line"/>
      <point x="531" y="519" type="line"/>
    </contour>
    <contour>
      <point x="11" y="22" type="line"/>
      <point x="11" y="2" type="line"/>
      <point x="429" y="2" type="line"/>
      <point x="429" y="22" type="line"/>
    </contour>
    <contour>
      <point x="11" y="600" type="line"/>
      <point x="11" y="580" type="line"/>
      <point x="430" y="580" type="line"/>
      <point x="430" y="600" type="line"/>
    </contour>
    <contour>
      <point x="98" y="523" type="line"/>
      <point x="98" y="503" type="line"/>
      <point x="363" y="503" type="line"/>
      <point x="364" y="523" type="line"/>
    </contour>
    <contour>
      <point x="99" y="114" type="line"/>
      <point x="99" y="94" type="line"/>
      <point x="371" y="94" type="line"/>
      <point x="371" y="114" type="line"/>
    </contour>
    <contour>
      <point x="409" y="389" type="line"/>
      <point x="429" y="389" type="line"/>
      <point x="429" y="469" type="line"/>
      <point x="409" y="469" type="line"/>
    </contour>
    <contour>
      <point x="416" y="139" type="line"/>
      <point x="436" y="139" type="line"/>
      <point x="436" y="217" type="line"/>
      <point x="416" y="217" type="line"/>
    </contour>
    <contour>
      <point x="211" y="178" type="line"/>
      <point x="211" y="158" type="line"/>
      <point x="312" y="158" type="line"/>
      <point x="312" y="178" type="line"/>
    </contour>
    <contour>
      <point x="211" y="244" type="line"/>
      <point x="211" y="224" type="line"/>
      <point x="316" y="224" type="line"/>
      <point x="316" y="244" type="line"/>
    </contour>
    <contour>
      <point x="211" y="443" type="line"/>
      <point x="211" y="423" type="line"/>
      <point x="307" y="423" type="line"/>
      <point x="307" y="443" type="line"/>
    </contour>
    <contour>
      <point x="211" y="381" type="line"/>
      <point x="211" y="361" type="line"/>
      <point x="307" y="361" type="line"/>
      <point x="307" y="381" type="line"/>
    </contour>
    <contour>
      <point x="25" y="18" type="line"/>
      <point x="113" y="96" type="line"/>
      <point x="100" y="110" type="line"/>
      <point x="13" y="31" type="line"/>
    </contour>
    <contour>
      <point x="217" y="225" type="line"/>
      <point x="228" y="240" type="line"/>
      <point x="112" y="318" type="line"/>
      <point x="100" y="302" type="line"/>
    </contour>
    <contour>
      <point x="215" y="428" type="line"/>
      <point x="227" y="443" type="line"/>
      <point x="111" y="522" type="line"/>
      <point x="98" y="506" type="line"/>
    </contour>
    <contour>
      <point x="217" y="381" type="line"/>
      <point x="98" y="311" type="line"/>
      <point x="109" y="295" type="line"/>
      <point x="227" y="366" type="line"/>
    </contour>
    <contour>
      <point x="224" y="180" type="line"/>
      <point x="109" y="110" type="line"/>
      <point x="119" y="94" type="line"/>
      <point x="234" y="165" type="line"/>
    </contour>
    <contour>
      <point x="420" y="306" type="line"/>
      <point x="424" y="309" type="line"/>
      <point x="309" y="383" type="line"/>
      <point x="298" y="367" type="line"/>
      <point x="408" y="297" type="line"/>
      <point x="420" y="306" type="line"/>
      <point x="430" y="299" type="line"/>
      <point x="551" y="380" type="line"/>
      <point x="541" y="395" type="line"/>
      <point x="413" y="310" type="line"/>
      <point x="420" y="306" type="line"/>
      <point x="408" y="297" type="line"/>
      <point x="544" y="211" type="line"/>
      <point x="554" y="226" type="line"/>
      <point x="424" y="309" type="line"/>
      <point x="420" y="306" type="line"/>
      <point x="413" y="310" type="line"/>
      <point x="303" y="240" type="line"/>
      <point x="319" y="228" type="line"/>
      <point x="430" y="299" type="line"/>
    </contour>
    <contour>
      <point x="543" y="83" type="line"/>
      <point x="551" y="99" type="line"/>
      <point x="425" y="158" type="line"/>
      <point x="417" y="141" type="line"/>
    </contour>
    <contour>
      <point x="421" y="3" type="line"/>
      <point x="439" y="14" type="line"/>
      <point x="370" y="113" type="line"/>
      <point x="355" y="102" type="line"/>
    </contour>
    <contour>
      <point x="540" y="526" type="line"/>
      <point x="413" y="467" type="line"/>
      <point x="421" y="450" type="line"/>
      <point x="548" y="510" type="line"/>
    </contour>
    <contour>
      <point x="544" y="105" type="line"/>
      <point x="418" y="18" type="line"/>
      <point x="429" y="2" type="line"/>
      <point x="554" y="90" type="line"/>
    </contour>
    <contour>
      <point x="541" y="504" type="line"/>
      <point x="551" y="519" type="line"/>
      <point x="430" y="600" type="line"/>
      <point x="419" y="584" type="line"/>
    </contour>
    <contour>
      <point x="426" y="154" type="line"/>
      <point x="354" y="108" type="line"/>
      <point x="365" y="92" type="line"/>
      <point x="436" y="139" type="line"/>
    </contour>
    <contour>
      <point x="419" y="403" type="line"/>
      <point x="345" y="350" type="line"/>
      <point x="356" y="335" type="line"/>
      <point x="429" y="389" type="line"/>
    </contour>
    <contour>
      <point x="419" y="453" type="line"/>
      <point x="429" y="468" type="line"/>
      <point x="364" y="523" type="line"/>
      <point x="353" y="507" type="line"/>
    </contour>
    <contour>
      <point x="425" y="204" type="line"/>
      <point x="436" y="217" type="line"/>
      <point x="362" y="271" type="line"/>
      <point x="350" y="257" type="line"/>
    </contour>
    <contour>
      <point x="325" y="209" type="line"/>
      <point x="337" y="223" type="line"/>
      <point x="309" y="243" type="line"/>
      <point x="297" y="229" type="line"/>
    </contour>
    <contour>
      <point x="317" y="178" type="line"/>
      <point x="337" y="178" type="line"/>
      <point x="337" y="224" type="line"/>
      <point x="317" y="224" type="line"/>
    </contour>
    <contour>
      <point x="328" y="194" type="line"/>
      <point x="302" y="175" type="line"/>
      <point x="312" y="158" type="line"/>
      <point x="340" y="178" type="line"/>
    </contour>
    <contour>
      <point x="429" y="219" type="line"/>
      <point x="430" y="199" type="line"/>
      <point x="545" y="212" type="line"/>
      <point x="545" y="232" type="line"/>
    </contour>
    <contour>
      <point x="417" y="383" type="line"/>
      <point x="540" y="376" type="line"/>
      <point x="540" y="396" type="line"/>
      <point x="418" y="404" type="line"/>
    </contour>
    <contour>
      <point x="98" y="319" type="line"/>
      <point x="98" y="299" type="line"/>
      <point x="407" y="299" type="line"/>
      <point x="407" y="319" type="line"/>
    </contour>
    <contour>
      <point x="354" y="516" type="line"/>
      <point x="293" y="433" type="line"/>
      <point x="307" y="422" type="line"/>
      <point x="369" y="505" type="line"/>
    </contour>
    <contour>
      <point x="424" y="596" type="line"/>
      <point x="352" y="516" type="line"/>
      <point x="367" y="505" type="line"/>
      <point x="436" y="584" type="line"/>
    </contour>
    <contour>
      <point x="326" y="408" type="line"/>
      <point x="336" y="423" type="line"/>
      <point x="307" y="443" type="line"/>
      <point x="297" y="427" type="line"/>
    </contour>
    <contour>
      <point x="316" y="381" type="line"/>
      <point x="336" y="381" type="line"/>
      <point x="336" y="423" type="line"/>
      <point x="316" y="423" type="line"/>
    </contour>
    <contour>
      <point x="327" y="397" type="line"/>
      <point x="297" y="378" type="line"/>
      <point x="307" y="361" type="line"/>
      <point x="336" y="381" type="line"/>
    </contour>
    <contour>
      <point x="329" y="408" type="line"/>
      <point x="424" y="452" type="line"/>
      <point x="415" y="466" type="line"/>
      <point x="323" y="426" type="line"/>
    </contour>
    <contour>
      <point x="322" y="395" type="line"/>
      <point x="322" y="376" type="line"/>
      <point x="417" y="384" type="line"/>
      <point x="415" y="403" type="line"/>
    </contour>
    <contour>
      <point x="329" y="191" type="line"/>
      <point x="323" y="173" type="line"/>
      <point x="416" y="139" type="line"/>
      <point x="425" y="156" type="line"/>
    </contour>
    <contour>
      <point x="322" y="207" type="line"/>
      <point x="424" y="199" type="line"/>
      <point x="424" y="218" type="line"/>
      <point x="322" y="226" type="line"/>
    </contour>
    <contour>
      <point x="359" y="102" type="line"/>
      <point x="374" y="113" type="line"/>
      <point x="309" y="174" type="line"/>
      <point x="295" y="163" type="line"/>
    </contour>
    <contour>
      <point x="25" y="598" type="line"/>
      <point x="13" y="585" type="line"/>
      <point x="100" y="506" type="line"/>
      <point x="113" y="520" type="line"/>
    </contour>
  </outline>
</glyph>
<glyph name="C" format="2">
  <advance width="508"/>
  <unicode hex="0043"/>
  <anchor x="260" y="0" name="bottom"/>
  <anchor x="260" y="600" name="top"/>
  <outline>
    <contour>
      <point x="363" y="0" type="line"/>
      <point x="501" y="137" type="line"/>
      <point x="485" y="151" type="line"/>
      <point x="346" y="13" type="line"/>
    </contour>
    <contour>
      <point x="160" y="0" type="line"/>
      <point x="175" y="15" type="line"/>
      <point x="20" y="153" type="line"/>
      <point x="5" y="138" type="line"/>
    </contour>
    <contour>
      <point x="22" y="140" type="line"/>
      <point x="105" y="162" type="line"/>
      <point x="99" y="179" type="line"/>
      <point x="16" y="157" type="line"/>
    </contour>
    <contour>
      <point x="160" y="0" type="line"/>
      <point x="363" y="0" type="line"/>
      <point x="363" y="19" type="line"/>
      <point x="160" y="19" type="line"/>
    </contour>
    <contour>
      <point x="182" y="6" type="line"/>
      <point x="219" y="83" type="line"/>
      <point x="203" y="92" type="line"/>
      <point x="166" y="15" type="line"/>
    </contour>
    <contour>
      <point x="5" y="138" type="line"/>
      <point x="26" y="138" type="line"/>
      <point x="26" y="464" type="line"/>
      <point x="5" y="464" type="line"/>
    </contour>
    <contour>
      <point x="204" y="76" type="line"/>
      <point x="217" y="91" type="line"/>
      <point x="105" y="181" type="line"/>
      <point x="90" y="166" type="line"/>
    </contour>
    <contour>
      <point x="103" y="162" type="line"/>
      <point x="234" y="192" type="line"/>
      <point x="228" y="209" type="line"/>
      <point x="97" y="180" type="line"/>
    </contour>
    <contour>
      <point x="204" y="76" type="line"/>
      <point x="339" y="76" type="line"/>
      <point x="339" y="95" type="line"/>
      <point x="204" y="95" type="line"/>
    </contour>
    <contour>
      <point x="217" y="81" type="line"/>
      <point x="265" y="169" type="line"/>
      <point x="251" y="180" type="line"/>
      <point x="203" y="92" type="line"/>
    </contour>
    <contour>
      <point x="90" y="166" type="line"/>
      <point x="112" y="166" type="line"/>
      <point x="112" y="440" type="line"/>
      <point x="90" y="440" type="line"/>
    </contour>
    <contour>
      <point x="353" y="11" type="line"/>
      <point x="370" y="21" type="line"/>
      <point x="340" y="101" type="line"/>
      <point x="323" y="91" type="line"/>
    </contour>
    <contour>
      <point x="246" y="166" type="line"/>
      <point x="261" y="181" type="line"/>
      <point x="227" y="214" type="line"/>
      <point x="211" y="199" type="line"/>
    </contour>
    <contour>
      <point x="245" y="163" type="line"/>
      <point x="301" y="163" type="line"/>
      <point x="301" y="182" type="line"/>
      <point x="245" y="182" type="line"/>
    </contour>
    <contour>
      <point x="97" y="427" type="line"/>
      <point x="103" y="444" type="line"/>
      <point x="20" y="459" type="line"/>
      <point x="14" y="442" type="line"/>
    </contour>
    <contour>
      <point x="327" y="83" type="line"/>
      <point x="342" y="94" type="line"/>
      <point x="300" y="176" type="line"/>
      <point x="285" y="165" type="line"/>
    </contour>
    <contour>
      <point x="213" y="199" type="line"/>
      <point x="234" y="199" type="line"/>
      <point x="234" y="422" type="line"/>
      <point x="213" y="422" type="line"/>
    </contour>
    <contour>
      <point x="339" y="76" type="line"/>
      <point x="414" y="163" type="line"/>
      <point x="399" y="174" type="line"/>
      <point x="324" y="87" type="line"/>
    </contour>
    <contour>
      <point x="305" y="160" type="line"/>
      <point x="346" y="199" type="line"/>
      <point x="331" y="214" type="line"/>
      <point x="290" y="175" type="line"/>
    </contour>
    <contour>
      <point x="225" y="409" type="line"/>
      <point x="232" y="426" type="line"/>
      <point x="103" y="444" type="line"/>
      <point x="97" y="426" type="line"/>
    </contour>
    <contour>
      <point x="322" y="201" type="line"/>
      <point x="344" y="201" type="line"/>
      <point x="344" y="279" type="line"/>
      <point x="322" y="279" type="line"/>
    </contour>
    <contour>
      <point x="20" y="449" type="line"/>
      <point x="166" y="585" type="line"/>
      <point x="151" y="600" type="line"/>
      <point x="5" y="464" type="line"/>
    </contour>
    <contour>
      <point x="322" y="259" type="line"/>
      <point x="501" y="259" type="line"/>
      <point x="501" y="279" type="line"/>
      <point x="322" y="279" type="line"/>
    </contour>
    <contour>
      <point x="106" y="427" type="line"/>
      <point x="204" y="516" type="line"/>
      <point x="191" y="531" type="line"/>
      <point x="91" y="442" type="line"/>
    </contour>
    <contour>
      <point x="402" y="164" type="line"/>
      <point x="408" y="182" type="line"/>
      <point x="327" y="214" type="line"/>
      <point x="321" y="196" type="line"/>
    </contour>
    <contour>
      <point x="408" y="163" type="line"/>
      <point x="422" y="176" type="line"/>
      <point x="344" y="270" type="line"/>
      <point x="330" y="257" type="line"/>
    </contour>
    <contour>
      <point x="414" y="163" type="line"/>
      <point x="492" y="257" type="line"/>
      <point x="478" y="270" type="line"/>
      <point x="400" y="176" type="line"/>
    </contour>
    <contour>
      <point x="480" y="129" type="line"/>
      <point x="486" y="149" type="line"/>
      <point x="410" y="182" type="line"/>
      <point x="404" y="162" type="line"/>
    </contour>
    <contour>
      <point x="228" y="407" type="line"/>
      <point x="259" y="438" type="line"/>
      <point x="244" y="453" type="line"/>
      <point x="213" y="422" type="line"/>
    </contour>
    <contour>
      <point x="480" y="136" type="line"/>
      <point x="501" y="136" type="line"/>
      <point x="501" y="279" type="line"/>
      <point x="480" y="279" type="line"/>
    </contour>
    <contour>
      <point x="247" y="435" type="line"/>
      <point x="262" y="446" type="line"/>
      <point x="200" y="533" type="line"/>
      <point x="183" y="521" type="line"/>
    </contour>
    <contour>
      <point x="321" y="343" type="line"/>
      <point x="343" y="343" type="line"/>
      <point x="343" y="420" type="line"/>
      <point x="321" y="420" type="line"/>
    </contour>
    <contour>
      <point x="244" y="434" type="line"/>
      <point x="290" y="434" type="line"/>
      <point x="290" y="453" type="line"/>
      <point x="244" y="453" type="line"/>
    </contour>
    <contour>
      <point x="190" y="512" type="line"/>
      <point x="205" y="525" type="line"/>
      <point x="163" y="594" type="line"/>
      <point x="144" y="587" type="line"/>
    </contour>
    <contour>
      <point x="327" y="404" type="line"/>
      <point x="343" y="420" type="line"/>
      <point x="290" y="453" type="line"/>
      <point x="275" y="438" type="line"/>
    </contour>
    <contour>
      <point x="322" y="343" type="line"/>
      <point x="502" y="343" type="line"/>
      <point x="502" y="363" type="line"/>
      <point x="322" y="363" type="line"/>
    </contour>
    <contour>
      <point x="345" y="352" type="line"/>
      <point x="420" y="430" type="line"/>
      <point x="404" y="440" type="line"/>
      <point x="329" y="363" type="line"/>
    </contour>
    <contour>
      <point x="189" y="513" type="line"/>
      <point x="345" y="513" type="line"/>
      <point x="345" y="533" type="line"/>
      <point x="189" y="533" type="line"/>
    </contour>
    <contour>
      <point x="294" y="439" type="line"/>
      <point x="353" y="514" type="line"/>
      <point x="337" y="525" type="line"/>
      <point x="278" y="450" type="line"/>
    </contour>
    <contour>
      <point x="331" y="409" type="line"/>
      <point x="418" y="431" type="line"/>
      <point x="412" y="447" type="line"/>
      <point x="325" y="425" type="line"/>
    </contour>
    <contour>
      <point x="151" y="581" type="line"/>
      <point x="365" y="581" type="line"/>
      <point x="365" y="600" type="line"/>
      <point x="151" y="600" type="line"/>
    </contour>
    <contour>
      <point x="482" y="350" type="line"/>
      <point x="497" y="361" type="line"/>
      <point x="418" y="446" type="line"/>
      <point x="403" y="435" type="line"/>
    </contour>
    <contour>
      <point x="402" y="436" type="line"/>
      <point x="418" y="446" type="line"/>
      <point x="347" y="530" type="line"/>
      <point x="338" y="511" type="line"/>
    </contour>
    <contour>
      <point x="346" y="511" type="line"/>
      <point x="376" y="586" type="line"/>
      <point x="358" y="594" type="line"/>
      <point x="328" y="521" type="line"/>
    </contour>
    <contour>
      <point x="416" y="429" type="line"/>
      <point x="483" y="455" type="line"/>
      <point x="476" y="473" type="line"/>
      <point x="409" y="447" type="line"/>
    </contour>
    <contour>
      <point x="481" y="344" type="line"/>
      <point x="503" y="344" type="line"/>
      <point x="503" y="465" type="line"/>
      <point x="481" y="465" type="line"/>
    </contour>
    <contour>
      <point x="488" y="449" type="line"/>
      <point x="503" y="464" type="line"/>
      <point x="365" y="600" type="line"/>
      <point x="349" y="584" type="line"/>
    </contour>
  </outline>
</glyph>
<glyph name="D" format="2">
  <advance width="580"/>
  <unicode hex="0044"/>
  <anchor x="263" y="0" name="bottom"/>
  <anchor x="263" y="300" name="center"/>
  <anchor x="263" y="600" name="top"/>
  <outline>
    <contour>
      <point x="230" y="428" type="line"/>
      <point x="243" y="444" type="line"/>
      <point x="127" y="524" type="line"/>
      <point x="117" y="507" type="line"/>
    </contour>
    <contour>
      <point x="32" y="7" type="line"/>
      <point x="131" y="108" type="line"/>
      <point x="106" y="111" type="line"/>
      <point x="13" y="16" type="line"/>
    </contour>
    <contour>
      <point x="28" y="0" type="line"/>
      <point x="409" y="0" type="line"/>
      <point x="414" y="20" type="line"/>
      <point x="28" y="20" type="line"/>
    </contour>
    <contour>
      <point x="10" y="0" type="line"/>
      <point x="28" y="0" type="line"/>
      <point x="28" y="600" type="line"/>
      <point x="10" y="600" type="line"/>
    </contour>
    <contour>
      <point x="134" y="106" type="line"/>
      <point x="256" y="180" type="line"/>
      <point x="228" y="185" type="line"/>
      <point x="108" y="112" type="line"/>
    </contour>
    <contour>
      <point x="122" y="95" type="line"/>
      <point x="365" y="95" type="line"/>
      <point x="365" y="113" type="line"/>
      <point x="122" y="113" type="line"/>
    </contour>
    <contour>
      <point x="104" y="95" type="line"/>
      <point x="124" y="95" type="line"/>
      <point x="124" y="526" type="line"/>
      <point x="104" y="526" type="line"/>
    </contour>
    <contour>
      <point x="227" y="168" type="line"/>
      <point x="314" y="168" type="line"/>
      <point x="314" y="187" type="line"/>
      <point x="227" y="187" type="line"/>
    </contour>
    <contour>
      <point x="396" y="9" type="line"/>
      <point x="416" y="16" type="line"/>
      <point x="372" y="109" type="line"/>
      <point x="355" y="100" type="line"/>
    </contour>
    <contour>
      <point x="357" y="98" type="line"/>
      <point x="374" y="108" type="line"/>
      <point x="315" y="185" type="line"/>
      <point x="300" y="175" type="line"/>
    </contour>
    <contour>
      <point x="314" y="172" type="line"/>
      <point x="352" y="211" type="line"/>
      <point x="337" y="223" type="line"/>
      <point x="299" y="184" type="line"/>
    </contour>
    <contour>
      <point x="227" y="186" type="line"/>
      <point x="247" y="186" type="line"/>
      <point x="247" y="432" type="line"/>
      <point x="227" y="432" type="line"/>
    </contour>
    <contour>
      <point x="368" y="94" type="line"/>
      <point x="461" y="181" type="line"/>
      <point x="443" y="190" type="line"/>
      <point x="356" y="109" type="line"/>
    </contour>
    <contour>
      <point x="409" y="0" type="line"/>
      <point x="575" y="146" type="line"/>
      <point x="555" y="155" type="line"/>
      <point x="395" y="14" type="line"/>
    </contour>
    <contour>
      <point x="444" y="170" type="line"/>
      <point x="456" y="187" type="line"/>
      <point x="339" y="225" type="line"/>
      <point x="335" y="208" type="line"/>
    </contour>
    <contour>
      <point x="335" y="208" type="line"/>
      <point x="355" y="210" type="line"/>
      <point x="355" y="405" type="line"/>
      <point x="335" y="405" type="line"/>
    </contour>
    <contour>
      <point x="557" y="140" type="line"/>
      <point x="568" y="158" type="line"/>
      <point x="452" y="188" type="line"/>
      <point x="446" y="170" type="line"/>
    </contour>
    <contour>
      <point x="227" y="429" type="line"/>
      <point x="306" y="429" type="line"/>
      <point x="306" y="448" type="line"/>
      <point x="227" y="448" type="line"/>
    </contour>
    <contour>
      <point x="342" y="391" type="line"/>
      <point x="356" y="406" type="line"/>
      <point x="306" y="448" type="line"/>
      <point x="294" y="433" type="line"/>
    </contour>
    <contour>
      <point x="107" y="510" type="line"/>
      <point x="353" y="510" type="line"/>
      <point x="353" y="526" type="line"/>
      <point x="107" y="526" type="line"/>
    </contour>
    <contour>
      <point x="436" y="184" type="line"/>
      <point x="456" y="184" type="line"/>
      <point x="456" y="434" type="line"/>
      <point x="436" y="434" type="line"/>
    </contour>
    <contour>
      <point x="306" y="429" type="line"/>
      <point x="364" y="518" type="line"/>
      <point x="346" y="526" type="line"/>
      <point x="288" y="436" type="line"/>
    </contour>
    <contour>
      <point x="26" y="580" type="line"/>
      <point x="416" y="580" type="line"/>
      <point x="420" y="600" type="line"/>
      <point x="26" y="600" type="line"/>
    </contour>
    <contour>
      <point x="342" y="387" type="line"/>
      <point x="449" y="427" type="line"/>
      <point x="435" y="442" type="line"/>
      <point x="336" y="404" type="line"/>
    </contour>
    <contour>
      <point x="446" y="419" type="line"/>
      <point x="456" y="434" type="line"/>
      <point x="353" y="523" type="line"/>
      <point x="342" y="510" type="line"/>
    </contour>
    <contour>
      <point x="575" y="146" type="line"/>
      <point x="575" y="469" type="line"/>
      <point x="555" y="469" type="line"/>
      <point x="555" y="150" type="line"/>
    </contour>
    <contour>
      <point x="361" y="514" type="line"/>
      <point x="418" y="580" type="line"/>
      <point x="398" y="586" type="line"/>
      <point x="345" y="524" type="line"/>
    </contour>
    <contour>
      <point x="450" y="426" type="line"/>
      <point x="566" y="455" type="line"/>
      <point x="560" y="474" type="line"/>
      <point x="440" y="443" type="line"/>
    </contour>
    <contour>
      <point x="556" y="459" type="line"/>
      <point x="575" y="469" type="line"/>
      <point x="419" y="600" type="line"/>
      <point x="407" y="585" type="line"/>
    </contour>
    <contour>
      <point x="112" y="510" type="line"/>
      <point x="125" y="526" type="line"/>
      <point x="27" y="592" type="line"/>
      <point x="17" y="575" type="line"/>
    </contour>
  </outline>
</glyph>
<glyph name="F" format="2">
  <advance width="475"/>
  <unicode hex="0046"/>
  <anchor x="240" y="0" name="bottom"/>
  <anchor x="240" y="600" name="top"/>
  <outline>
    <contour>
      <point x="23" y="0" type="line"/>
      <point x="135" y="109" type="line"/>
      <point x="122" y="122" type="line"/>
      <point x="10" y="13" type="line"/>
    </contour>
    <contour>
      <point x="10" y="0" type="line"/>
      <point x="30" y="0" type="line"/>
      <point x="30" y="600" type="line"/>
      <point x="10" y="600" type="line"/>
    </contour>
    <contour>
      <point x="120" y="111" type="line"/>
      <point x="140" y="111" type="line"/>
      <point x="140" y="526" type="line"/>
      <point x="120" y="526" type="line"/>
    </contour>
    <contour>
      <point x="240" y="223" type="line"/>
      <point x="253" y="237" type="line"/>
      <point x="135" y="317" type="line"/>
      <point x="120" y="304" type="line"/>
    </contour>
    <contour>
      <point x="230" y="225" type="line"/>
      <point x="370" y="225" type="line"/>
      <point x="370" y="245" type="line"/>
      <point x="230" y="245" type="line"/>
    </contour>
    <contour>
      <point x="135" y="295" type="line"/>
      <point x="253" y="370" type="line"/>
      <point x="240" y="385" type="line"/>
      <point x="120" y="306" type="line"/>
    </contour>
    <contour>
      <point x="122" y="511" type="line"/>
      <point x="135" y="524" type="line"/>
      <point x="23" y="600" type="line"/>
      <point x="10" y="587" type="line"/>
    </contour>
    <contour>
      <point x="140" y="297" type="line"/>
      <point x="260" y="297" type="line"/>
      <point x="260" y="317" type="line"/>
      <point x="140" y="317" type="line"/>
    </contour>
    <contour>
      <point x="230" y="365" type="line"/>
      <point x="370" y="365" type="line"/>
      <point x="370" y="385" type="line"/>
      <point x="230" y="385" type="line"/>
    </contour>
    <contour>
      <point x="360" y="225" type="line"/>
      <point x="373" y="237" type="line"/>
      <point x="255" y="317" type="line"/>
      <point x="240" y="306" type="line"/>
    </contour>
    <contour>
      <point x="257" y="297" type="line"/>
      <point x="373" y="370" type="line"/>
      <point x="360" y="385" type="line"/>
      <point x="240" y="306" type="line"/>
    </contour>
    <contour>
      <point x="360" y="225" type="line"/>
      <point x="380" y="225" type="line"/>
      <point x="380" y="385" type="line"/>
      <point x="360" y="385" type="line"/>
    </contour>
    <contour>
      <point x="230" y="0" type="line"/>
      <point x="250" y="0" type="line"/>
      <point x="250" y="238" type="line"/>
      <point x="230" y="238" type="line"/>
    </contour>
    <contour>
      <point x="20" y="600" type="line"/>
      <point x="20" y="580" type="line"/>
      <point x="460" y="580" type="line"/>
      <point x="460" y="600" type="line"/>
    </contour>
    <contour>
      <point x="141" y="520" type="line"/>
      <point x="126" y="509" type="line"/>
      <point x="236" y="425" type="line"/>
      <point x="249" y="440" type="line"/>
    </contour>
    <contour>
      <point x="126" y="528" type="line"/>
      <point x="126" y="508" type="line"/>
      <point x="350" y="508" type="line"/>
      <point x="350" y="528" type="line"/>
    </contour>
    <contour>
      <point x="230" y="445" type="line"/>
      <point x="230" y="425" type="line"/>
      <point x="460" y="425" type="line"/>
      <point x="460" y="445" type="line"/>
    </contour>
    <contour>
      <point x="446" y="593" type="line"/>
      <point x="329" y="525" type="line"/>
      <point x="344" y="511" type="line"/>
      <point x="463" y="580" type="line"/>
    </contour>
    <contour>
      <point x="347" y="528" type="line"/>
      <point x="329" y="519" type="line"/>
      <point x="450" y="432" type="line"/>
      <point x="463" y="447" type="line"/>
    </contour>
    <contour>
      <point x="450" y="600" type="line"/>
      <point x="450" y="425" type="line"/>
      <point x="470" y="425" type="line"/>
      <point x="470" y="600" type="line"/>
    </contour>
    <contour>
      <point x="230" y="372" type="line"/>
      <point x="250" y="372" type="line"/>
      <point x="250" y="443" type="line"/>
      <point x="230" y="443" type="line"/>
    </contour>
    <contour>
      <point x="10" y="0" type="line"/>
      <point x="250" y="0" type="line"/>
      <point x="250" y="20" type="line"/>
      <point x="10" y="20" type="line"/>
    </contour>
    <contour>
      <point x="237" y="0" type="line"/>
      <point x="250" y="13" type="line"/>
      <point x="138" y="125" type="line"/>
      <point x="125" y="112" type="line"/>
    </contour>
  </outline>
</glyph>
<glyph name="G" format="2">
  <advance width="571"/>
  <unicode hex="0047"/>
  <anchor x="283" y="0" name="bottom"/>
  <anchor x="283" y="600" name="top"/>
  <outline>
    <contour>
      <point x="541" y="462" type="line"/>
      <point x="541" y="339" type="line"/>
      <point x="561" y="339" type="line"/>
      <point x="561" y="462" type="line"/>
    </contour>
    <contour>
      <point x="561" y="339" type="line"/>
      <point x="541" y="339" type="line"/>
    </contour>
    <contour>
      <point x="387" y="585" type="line"/>
      <point x="548" y="447" type="line"/>
      <point x="561" y="462" type="line"/>
      <point x="400" y="600" type="line"/>
    </contour>
    <contour>
      <point x="561" y="462" type="line"/>
      <point x="548" y="447" type="line"/>
    </contour>
    <contour>
      <point x="326" y="339" type="line"/>
      <point x="551" y="339" type="line"/>
      <point x="551" y="359" type="line"/>
      <point x="326" y="359" type="line"/>
    </contour>
    <contour>
      <point x="445" y="435" type="line"/>
      <point x="533" y="347" type="line"/>
      <point x="547" y="361" type="line"/>
      <point x="459" y="449" type="line"/>
    </contour>
    <contour>
      <point x="551" y="467" type="line"/>
      <point x="439" y="448" type="line"/>
      <point x="443" y="428" type="line"/>
      <point x="554" y="447" type="line"/>
    </contour>
    <contour>
      <point x="454" y="447" type="line"/>
      <point x="326" y="359" type="line"/>
      <point x="339" y="344" type="line"/>
      <point x="467" y="432" type="line"/>
    </contour>
    <contour>
      <point x="163" y="0" type="line"/>
      <point x="178" y="14" type="line"/>
      <point x="20" y="149" type="line"/>
      <point x="5" y="135" type="line"/>
    </contour>
    <contour>
      <point x="24" y="144" type="line"/>
      <point x="109" y="167" type="line"/>
      <point x="103" y="184" type="line"/>
      <point x="18" y="161" type="line"/>
    </contour>
    <contour>
      <point x="171" y="7" type="line"/>
      <point x="223" y="96" type="line"/>
      <point x="206" y="106" type="line"/>
      <point x="154" y="17" type="line"/>
    </contour>
    <contour>
      <point x="163" y="0" type="line"/>
      <point x="349" y="0" type="line"/>
      <point x="349" y="20" type="line"/>
      <point x="163" y="20" type="line"/>
    </contour>
    <contour>
      <point x="209" y="84" type="line"/>
      <point x="223" y="98" type="line"/>
      <point x="110" y="187" type="line"/>
      <point x="95" y="173" type="line"/>
    </contour>
    <contour>
      <point x="5" y="135" type="line"/>
      <point x="26" y="135" type="line"/>
      <point x="26" y="466" type="line"/>
      <point x="5" y="466" type="line"/>
    </contour>
    <contour>
      <point x="111" y="169" type="line"/>
      <point x="234" y="198" type="line"/>
      <point x="228" y="214" type="line"/>
      <point x="105" y="185" type="line"/>
    </contour>
    <contour>
      <point x="209" y="84" type="line"/>
      <point x="329" y="84" type="line"/>
      <point x="329" y="103" type="line"/>
      <point x="209" y="103" type="line"/>
    </contour>
    <contour>
      <point x="219" y="91" type="line"/>
      <point x="267" y="175" type="line"/>
      <point x="252" y="187" type="line"/>
      <point x="203" y="102" type="line"/>
    </contour>
    <contour>
      <point x="341" y="10" type="line"/>
      <point x="361" y="17" type="line"/>
      <point x="335" y="98" type="line"/>
      <point x="316" y="91" type="line"/>
    </contour>
    <contour>
      <point x="95" y="173" type="line"/>
      <point x="116" y="173" type="line"/>
      <point x="116" y="438" type="line"/>
      <point x="95" y="438" type="line"/>
    </contour>
    <contour>
      <point x="320" y="88" type="line"/>
      <point x="336" y="100" type="line"/>
      <point x="309" y="184" type="line"/>
      <point x="293" y="172" type="line"/>
    </contour>
    <contour>
      <point x="104" y="430" type="line"/>
      <point x="111" y="448" type="line"/>
      <point x="26" y="470" type="line"/>
      <point x="19" y="452" type="line"/>
    </contour>
    <contour>
      <point x="20" y="452" type="line"/>
      <point x="181" y="586" type="line"/>
      <point x="166" y="600" type="line"/>
      <point x="5" y="466" type="line"/>
    </contour>
    <contour>
      <point x="109" y="425" type="line"/>
      <point x="216" y="526" type="line"/>
      <point x="203" y="539" type="line"/>
      <point x="95" y="438" type="line"/>
    </contour>
    <contour>
      <point x="256" y="437" type="line"/>
      <point x="273" y="449" type="line"/>
      <point x="217" y="533" type="line"/>
      <point x="200" y="521" type="line"/>
    </contour>
    <contour>
      <point x="200" y="525" type="line"/>
      <point x="219" y="532" type="line"/>
      <point x="185" y="592" type="line"/>
      <point x="164" y="585" type="line"/>
    </contour>
    <contour>
      <point x="203" y="520" type="line"/>
      <point x="360" y="520" type="line"/>
      <point x="360" y="539" type="line"/>
      <point x="203" y="539" type="line"/>
    </contour>
    <contour>
      <point x="166" y="582" type="line"/>
      <point x="400" y="582" type="line"/>
      <point x="400" y="600" type="line"/>
      <point x="166" y="600" type="line"/>
    </contour>
    <contour>
      <point x="228" y="394" type="line"/>
      <point x="234" y="410" type="line"/>
      <point x="112" y="447" type="line"/>
      <point x="106" y="431" type="line"/>
    </contour>
    <contour>
      <point x="219" y="207" type="line"/>
      <point x="239" y="207" type="line"/>
      <point x="239" y="407" type="line"/>
      <point x="219" y="407" type="line"/>
    </contour>
    <contour>
      <point x="250" y="167" type="line"/>
      <point x="306" y="167" type="line"/>
      <point x="306" y="185" type="line"/>
      <point x="250" y="185" type="line"/>
    </contour>
    <contour>
      <point x="255" y="434" type="line"/>
      <point x="312" y="434" type="line"/>
      <point x="312" y="452" type="line"/>
      <point x="255" y="452" type="line"/>
    </contour>
    <contour>
      <point x="308" y="168" type="line"/>
      <point x="346" y="201" type="line"/>
      <point x="329" y="214" type="line"/>
      <point x="294" y="182" type="line"/>
    </contour>
    <contour>
      <point x="326" y="203" type="line"/>
      <point x="346" y="201" type="line"/>
      <point x="346" y="279" type="line"/>
      <point x="326" y="279" type="line"/>
    </contour>
    <contour>
      <point x="331" y="399" type="line"/>
      <point x="345" y="413" type="line"/>
      <point x="312" y="452" type="line"/>
      <point x="298" y="438" type="line"/>
    </contour>
    <contour>
      <point x="450" y="435" type="line"/>
      <point x="465" y="450" type="line"/>
      <point x="360" y="539" type="line"/>
      <point x="345" y="524" type="line"/>
    </contour>
    <contour>
      <point x="309" y="431" type="line"/>
      <point x="366" y="524" type="line"/>
      <point x="349" y="536" type="line"/>
      <point x="293" y="443" type="line"/>
    </contour>
    <contour>
      <point x="363" y="523" type="line"/>
      <point x="411" y="581" type="line"/>
      <point x="395" y="593" type="line"/>
      <point x="346" y="534" type="line"/>
    </contour>
    <contour>
      <point x="329" y="84" type="line"/>
      <point x="456" y="180" type="line"/>
      <point x="442" y="194" type="line"/>
      <point x="315" y="98" type="line"/>
    </contour>
    <contour>
      <point x="326" y="342" type="line"/>
      <point x="346" y="342" type="line"/>
      <point x="346" y="411" type="line"/>
      <point x="326" y="411" type="line"/>
    </contour>
    <contour>
      <point x="326" y="258" type="line"/>
      <point x="561" y="258" type="line"/>
      <point x="561" y="279" type="line"/>
      <point x="326" y="279" type="line"/>
    </contour>
    <contour>
      <point x="349" y="0" type="line"/>
      <point x="454" y="89" type="line"/>
      <point x="441" y="104" type="line"/>
      <point x="336" y="15" type="line"/>
    </contour>
    <contour>
      <point x="541" y="268" type="line"/>
      <point x="541" y="0" type="line"/>
      <point x="561" y="0" type="line"/>
      <point x="561" y="268" type="line"/>
    </contour>
    <contour>
      <point x="441" y="85" type="line"/>
      <point x="540" y="0" type="line"/>
      <point x="554" y="16" type="line"/>
      <point x="456" y="100" type="line"/>
    </contour>
    <contour>
      <point x="250" y="171" type="line"/>
      <point x="264" y="185" type="line"/>
      <point x="232" y="216" type="line"/>
      <point x="218" y="202" type="line"/>
    </contour>
    <contour>
      <point x="233" y="393" type="line"/>
      <point x="270" y="435" type="line"/>
      <point x="256" y="449" type="line"/>
      <point x="219" y="407" type="line"/>
    </contour>
    <contour>
      <point x="458" y="176" type="line"/>
      <point x="551" y="253" type="line"/>
      <point x="537" y="267" type="line"/>
      <point x="444" y="190" type="line"/>
    </contour>
    <contour>
      <point x="438" y="89" type="line"/>
      <point x="458" y="89" type="line"/>
      <point x="458" y="188" type="line"/>
      <point x="438" y="188" type="line"/>
    </contour>
    <contour>
      <point x="434" y="176" type="line"/>
      <point x="448" y="190" type="line"/>
      <point x="351" y="267" type="line"/>
      <point x="337" y="253" type="line"/>
    </contour>
    <contour>
      <point x="334" y="401" type="line"/>
      <point x="456" y="431" type="line"/>
      <point x="450" y="447" type="line"/>
      <point x="328" y="417" type="line"/>
    </contour>
    <contour>
      <point x="436" y="170" type="line"/>
      <point x="450" y="184" type="line"/>
      <point x="342" y="213" type="line"/>
      <point x="328" y="199" type="line"/>
    </contour>
  </outline>
</glyph>
<glyph name="H" format="2">
  <advance width="570"/>
  <unicode hex="0048"/>
  <anchor x="285" y="0" name="bottom"/>
  <anchor x="285" y="300" name="center"/>
  <anchor x="285" y="600" name="top"/>
  <anchor x="25" y="600" name="topleft"/>
  <outline>
    <contour>
      <point x="10" y="0" type="line"/>
      <point x="250" y="0" type="line"/>
      <point x="250" y="20" type="line"/>
      <point x="10" y="20" type="line"/>
    </contour>
    <contour>
      <point x="23" y="0" type="line"/>
      <point x="135" y="92" type="line"/>
      <point x="122" y="105" type="line"/>
      <point x="10" y="13" type="line"/>
    </contour>
    <contour>
      <point x="10" y="0" type="line"/>
      <point x="30" y="0" type="line"/>
      <point x="30" y="600" type="line"/>
      <point x="10" y="600" type="line"/>
    </contour>
    <contour>
      <point x="237" y="0" type="line"/>
      <point x="250" y="13" type="line"/>
      <point x="138" y="105" type="line"/>
      <point x="125" y="92" type="line"/>
    </contour>
    <contour>
      <point x="230" y="0" type="line"/>
      <point x="250" y="0" type="line"/>
      <point x="250" y="228" type="line"/>
      <point x="230" y="228" type="line"/>
    </contour>
    <contour>
      <point x="120" y="90" type="line"/>
      <point x="140" y="90" type="line"/>
      <point x="140" y="510" type="line"/>
      <point x="120" y="510" type="line"/>
    </contour>
    <contour>
      <point x="320" y="0" type="line"/>
      <point x="340" y="0" type="line"/>
      <point x="340" y="228" type="line"/>
      <point x="320" y="228" type="line"/>
    </contour>
    <contour>
      <point x="240" y="220" type="line"/>
      <point x="253" y="232" type="line"/>
      <point x="135" y="320" type="line"/>
      <point x="120" y="309" type="line"/>
    </contour>
    <contour>
      <point x="320" y="0" type="line"/>
      <point x="560" y="0" type="line"/>
      <point x="560" y="20" type="line"/>
      <point x="320" y="20" type="line"/>
    </contour>
    <contour>
      <point x="333" y="0" type="line"/>
      <point x="445" y="92" type="line"/>
      <point x="432" y="105" type="line"/>
      <point x="320" y="13" type="line"/>
    </contour>
    <contour>
      <point x="240" y="220" type="line"/>
      <point x="330" y="220" type="line"/>
      <point x="330" y="240" type="line"/>
      <point x="240" y="240" type="line"/>
    </contour>
    <contour>
      <point x="135" y="298" type="line"/>
      <point x="253" y="385" type="line"/>
      <point x="240" y="400" type="line"/>
      <point x="120" y="309" type="line"/>
    </contour>
    <contour>
      <point x="547" y="0" type="line"/>
      <point x="560" y="13" type="line"/>
      <point x="448" y="105" type="line"/>
      <point x="435" y="92" type="line"/>
    </contour>
    <contour>
      <point x="122" y="495" type="line"/>
      <point x="135" y="508" type="line"/>
      <point x="23" y="600" type="line"/>
      <point x="10" y="587" type="line"/>
    </contour>
    <contour>
      <point x="140" y="300" type="line"/>
      <point x="426" y="300" type="line"/>
      <point x="426" y="320" type="line"/>
      <point x="140" y="320" type="line"/>
    </contour>
    <contour>
      <point x="330" y="220" type="line"/>
      <point x="450" y="311" type="line"/>
      <point x="436" y="322" type="line"/>
      <point x="317" y="234" type="line"/>
    </contour>
    <contour>
      <point x="240" y="380" type="line"/>
      <point x="330" y="380" type="line"/>
      <point x="330" y="400" type="line"/>
      <point x="240" y="400" type="line"/>
    </contour>
    <contour>
      <point x="15" y="580" type="line"/>
      <point x="250" y="580" type="line"/>
      <point x="250" y="600" type="line"/>
      <point x="15" y="600" type="line"/>
    </contour>
    <contour>
      <point x="137" y="495" type="line"/>
      <point x="249" y="587" type="line"/>
      <point x="236" y="600" type="line"/>
      <point x="124" y="508" type="line"/>
    </contour>
    <contour>
      <point x="230" y="390" type="line"/>
      <point x="250" y="390" type="line"/>
      <point x="250" y="600" type="line"/>
      <point x="230" y="600" type="line"/>
    </contour>
    <contour>
      <point x="435" y="300" type="line"/>
      <point x="450" y="311" type="line"/>
      <point x="330" y="400" type="line"/>
      <point x="317" y="387" type="line"/>
    </contour>
    <contour>
      <point x="430" y="90" type="line"/>
      <point x="450" y="90" type="line"/>
      <point x="450" y="510" type="line"/>
      <point x="430" y="510" type="line"/>
    </contour>
    <contour>
      <point x="320" y="390" type="line"/>
      <point x="340" y="390" type="line"/>
      <point x="340" y="600" type="line"/>
      <point x="320" y="600" type="line"/>
    </contour>
    <contour>
      <point x="540" y="0" type="line"/>
      <point x="560" y="0" type="line"/>
      <point x="560" y="600" type="line"/>
      <point x="540" y="600" type="line"/>
    </contour>
    <contour>
      <point x="432" y="495" type="line"/>
      <point x="445" y="508" type="line"/>
      <point x="333" y="600" type="line"/>
      <point x="320" y="587" type="line"/>
    </contour>
    <contour>
      <point x="447" y="495" type="line"/>
      <point x="559" y="587" type="line"/>
      <point x="546" y="600" type="line"/>
      <point x="434" y="508" type="line"/>
    </contour>
    <contour>
      <point x="325" y="580" type="line"/>
      <point x="560" y="580" type="line"/>
      <point x="560" y="600" type="line"/>
      <point x="325" y="600" type="line"/>
    </contour>
  </outline>
</glyph>
<glyph name="L" format="2">
  <advance width="455"/>
  <unicode hex="004C"/>
  <anchor x="230" y="0" name="bottom"/>
  <anchor x="220" y="300" name="center"/>
  <anchor x="132" y="600" name="top"/>
  <anchor x="425" y="600" name="topright"/>
  <outline>
    <contour>
      <point x="23" y="0" type="line"/>
      <point x="135" y="89" type="line"/>
      <point x="122" y="102" type="line"/>
      <point x="10" y="13" type="line"/>
    </contour>
    <contour>
      <point x="10" y="0" type="line"/>
      <point x="30" y="0" type="line"/>
      <point x="30" y="600" type="line"/>
      <point x="10" y="600" type="line"/>
    </contour>
    <contour>
      <point x="120" y="97" type="line"/>
      <point x="140" y="97" type="line"/>
      <point x="140" y="511" type="line"/>
      <point x="120" y="511" type="line"/>
    </contour>
    <contour>
      <point x="122" y="496" type="line"/>
      <point x="135" y="509" type="line"/>
      <point x="23" y="600" type="line"/>
      <point x="10" y="587" type="line"/>
    </contour>
    <contour>
      <point x="230" y="160" type="line"/>
      <point x="250" y="160" type="line"/>
      <point x="250" y="588" type="line"/>
      <point x="230" y="588" type="line"/>
    </contour>
    <contour>
      <point x="20" y="0" type="line"/>
      <point x="443" y="0" type="line"/>
      <point x="443" y="20" type="line"/>
      <point x="20" y="20" type="line"/>
    </contour>
    <contour>
      <point x="141" y="95" type="line"/>
      <point x="249" y="165" type="line"/>
      <point x="236" y="180" type="line"/>
      <point x="126" y="106" type="line"/>
    </contour>
    <contour>
      <point x="126" y="87" type="line"/>
      <point x="350" y="87" type="line"/>
      <point x="350" y="107" type="line"/>
      <point x="126" y="107" type="line"/>
    </contour>
    <contour>
      <point x="236" y="160" type="line"/>
      <point x="440" y="160" type="line"/>
      <point x="440" y="180" type="line"/>
      <point x="236" y="180" type="line"/>
    </contour>
    <contour>
      <point x="429" y="9" type="line"/>
      <point x="443" y="22" type="line"/>
      <point x="345" y="107" type="line"/>
      <point x="329" y="95" type="line"/>
    </contour>
    <contour>
      <point x="347" y="87" type="line"/>
      <point x="443" y="165" type="line"/>
      <point x="430" y="180" type="line"/>
      <point x="330" y="96" type="line"/>
    </contour>
    <contour>
      <point x="430" y="0" type="line"/>
      <point x="450" y="0" type="line"/>
      <point x="450" y="180" type="line"/>
      <point x="430" y="180" type="line"/>
    </contour>
    <contour>
      <point x="20" y="600" type="line"/>
      <point x="20" y="580" type="line"/>
      <point x="250" y="580" type="line"/>
      <point x="250" y="600" type="line"/>
    </contour>
    <contour>
      <point x="236" y="593" type="line"/>
      <point x="121" y="509" type="line"/>
      <point x="134" y="496" type="line"/>
      <point x="247" y="577" type="line"/>
    </contour>
  </outline>
</glyph>
<glyph name="M" format="2">
  <advance width="789"/>
  <unicode hex="004D"/>
  <outline>
    <contour>
      <point x="761" y="7" type="line"/>
      <point x="773" y="23" type="line"/>
      <point x="662" y="120" type="line"/>
      <point x="655" y="100" type="line"/>
    </contour>
    <contour>
      <point x="550" y="0" type="line"/>
      <point x="779" y="0" type="line"/>
      <point x="779" y="20" type="line"/>
      <point x="550" y="20" type="line"/>
    </contour>
    <contour>
      <point x="559" y="6" type="line"/>
      <point x="668" y="99" type="line"/>
      <point x="661" y="118" type="line"/>
      <point x="553" y="25" type="line"/>
    </contour>
    <contour>
      <point x="759" y="0" type="line"/>
      <point x="779" y="0" type="line"/>
      <point x="779" y="600" type="line"/>
      <point x="759" y="600" type="line"/>
    </contour>
    <contour>
      <point x="550" y="2" type="line"/>
      <point x="570" y="2" type="line"/>
      <point x="570" y="595" type="line"/>
      <point x="550" y="595" type="line"/>
    </contour>
    <contour>
      <point x="651" y="101" type="line"/>
      <point x="671" y="100" type="line"/>
      <point x="671" y="523" type="line"/>
      <point x="651" y="524" type="line"/>
    </contour>
    <contour>
      <point x="431" y="580" type="line"/>
      <point x="779" y="580" type="line"/>
      <point x="779" y="600" type="line"/>
      <point x="431" y="600" type="line"/>
    </contour>
    <contour>
      <point x="654" y="505" type="line"/>
      <point x="668" y="517" type="line"/>
      <point x="576" y="592" type="line"/>
      <point x="562" y="580" type="line"/>
    </contour>
    <contour>
      <point x="661" y="500" type="line"/>
      <point x="773" y="582" type="line"/>
      <point x="765" y="598" type="line"/>
      <point x="653" y="516" type="line"/>
    </contour>
    <contour>
      <point x="343" y="98" type="line"/>
      <point x="362" y="92" type="line"/>
      <point x="564" y="588" type="line"/>
      <point x="545" y="595" type="line"/>
    </contour>
    <contour>
      <point x="339" y="93" type="line"/>
      <point x="426" y="8" type="line"/>
      <point x="439" y="22" type="line"/>
      <point x="351" y="109" type="line"/>
    </contour>
    <contour>
      <point x="307" y="1" type="line"/>
      <point x="359" y="93" type="line"/>
      <point x="342" y="102" type="line"/>
      <point x="290" y="8" type="line"/>
    </contour>
    <contour>
      <point x="415" y="6" type="line"/>
      <point x="435" y="0" type="line"/>
      <point x="556" y="300" type="line"/>
      <point x="554" y="349" type="line"/>
    </contour>
    <contour>
      <point x="291" y="0" type="line"/>
      <point x="435" y="0" type="line"/>
      <point x="435" y="20" type="line"/>
      <point x="291" y="20" type="line"/>
    </contour>
    <contour>
      <point x="291" y="1" type="line"/>
      <point x="309" y="7" type="line"/>
      <point x="115" y="478" type="line"/>
      <point x="98" y="472" type="line"/>
    </contour>
    <contour>
      <point x="342" y="81" type="line"/>
      <point x="360" y="87" type="line"/>
      <point x="182" y="524" type="line"/>
      <point x="167" y="511" type="line"/>
    </contour>
    <contour>
      <point x="301" y="218" type="line"/>
      <point x="450" y="593" type="line"/>
      <point x="431" y="600" type="line"/>
      <point x="290" y="245" type="line"/>
    </contour>
    <contour>
      <point x="11" y="580" type="line"/>
      <point x="247" y="580" type="line"/>
      <point x="247" y="600" type="line"/>
      <point x="11" y="600" type="line"/>
    </contour>
    <contour>
      <point x="10" y="0" type="line"/>
      <point x="31" y="0" type="line"/>
      <point x="31" y="600" type="line"/>
      <point x="10" y="600" type="line"/>
    </contour>
    <contour>
      <point x="86" y="80" type="line"/>
      <point x="107" y="79" type="line"/>
      <point x="107" y="484" type="line"/>
      <point x="86" y="484" type="line"/>
    </contour>
    <contour>
      <point x="166" y="0" type="line"/>
      <point x="185" y="0" type="line"/>
      <point x="185" y="276" type="line"/>
      <point x="166" y="323" type="line"/>
    </contour>
    <contour>
      <point x="333" y="340" type="line"/>
      <point x="343" y="361" type="line"/>
      <point x="247" y="599" type="line"/>
      <point x="227" y="596" type="line"/>
    </contour>
    <contour>
      <point x="33" y="14" type="line"/>
      <point x="105" y="88" type="line"/>
      <point x="93" y="102" type="line"/>
      <point x="21" y="26" type="line"/>
    </contour>
    <contour>
      <point x="168" y="10" type="line"/>
      <point x="179" y="25" type="line"/>
      <point x="102" y="97" type="line"/>
      <point x="91" y="80" type="line"/>
    </contour>
    <contour>
      <point x="12" y="0" type="line"/>
      <point x="185" y="0" type="line"/>
      <point x="185" y="20" type="line"/>
      <point x="12" y="20" type="line"/>
    </contour>
    <contour>
      <point x="99" y="466" type="line"/>
      <point x="114" y="478" type="line"/>
      <point x="26" y="598" type="line"/>
      <point x="12" y="582" type="line"/>
    </contour>
    <contour>
      <point x="111" y="459" type="line"/>
      <point x="249" y="585" type="line"/>
      <point x="230" y="593" type="line"/>
      <point x="91" y="467" type="line"/>
    </contour>
  </outline>
</glyph>
<glyph name="R" format="2">
  <advance width="594"/>
  <unicode hex="0052"/>
  <anchor x="300" y="0" name="bottom"/>
  <anchor x="300" y="600" name="top"/>
  <outline>
    <contour>
      <point x="10" y="0" type="line"/>
      <point x="260" y="0" type="line"/>
      <point x="260" y="20" type="line"/>
      <point x="10" y="20" type="line"/>
    </contour>
    <contour>
      <point x="10" y="0" type="line"/>
      <point x="30" y="0" type="line"/>
      <point x="30" y="600" type="line"/>
      <point x="10" y="600" type="line"/>
    </contour>
    <contour>
      <point x="240" y="0" type="line"/>
      <point x="260" y="0" type="line"/>
      <point x="260" y="228" type="line"/>
      <point x="240" y="228" type="line"/>
    </contour>
    <contour>
      <point x="14" y="600" type="line"/>
      <point x="34" y="600" type="line"/>
    </contour>
    <contour>
      <point x="23" y="0" type="line"/>
      <point x="128" y="101" type="line"/>
      <point x="115" y="114" type="line"/>
      <point x="10" y="13" type="line"/>
    </contour>
    <contour>
      <point x="247" y="0" type="line"/>
      <point x="260" y="13" type="line"/>
      <point x="131" y="114" type="line"/>
      <point x="119" y="101" type="line"/>
    </contour>
    <contour>
      <point x="111" y="99" type="line"/>
      <point x="131" y="99" type="line"/>
      <point x="131" y="515" type="line"/>
      <point x="111" y="515" type="line"/>
    </contour>
    <contour>
      <point x="325" y="0" type="line"/>
      <point x="345" y="7" type="line"/>
      <point x="262" y="232" type="line"/>
      <point x="244" y="227" type="line"/>
    </contour>
    <contour>
      <point x="326" y="0" type="line"/>
      <point x="572" y="0" type="line"/>
      <point x="572" y="20" type="line"/>
      <point x="326" y="20" type="line"/>
    </contour>
    <contour>
      <point x="568" y="0" type="line"/>
      <point x="589" y="0" type="line"/>
      <point x="466" y="279" type="line"/>
      <point x="446" y="274" type="line"/>
    </contour>
    <contour>
      <point x="545" y="327" type="line"/>
      <point x="565" y="327" type="line"/>
      <point x="565" y="530" type="line"/>
      <point x="545" y="530" type="line"/>
    </contour>
    <contour>
      <point x="461" y="265" type="line"/>
      <point x="565" y="327" type="line"/>
      <point x="555" y="343" type="line"/>
      <point x="451" y="280" type="line"/>
    </contour>
    <contour>
      <point x="377" y="301" type="line"/>
      <point x="443" y="359" type="line"/>
      <point x="432" y="371" type="line"/>
      <point x="367" y="315" type="line"/>
    </contour>
    <contour>
      <point x="115" y="301" type="line"/>
      <point x="384" y="301" type="line"/>
      <point x="384" y="321" type="line"/>
      <point x="115" y="321" type="line"/>
    </contour>
    <contour>
      <point x="14" y="600" type="line"/>
      <point x="14" y="580" type="line"/>
      <point x="452" y="580" type="line"/>
      <point x="452" y="600" type="line"/>
    </contour>
    <contour>
      <point x="111" y="520" type="line"/>
      <point x="111" y="500" type="line"/>
      <point x="373" y="500" type="line"/>
      <point x="373" y="520" type="line"/>
    </contour>
    <contour>
      <point x="436" y="458" type="line"/>
      <point x="557" y="509" type="line"/>
      <point x="550" y="527" type="line"/>
      <point x="428" y="474" type="line"/>
    </contour>
    <contour>
      <point x="382" y="507" type="line"/>
      <point x="454" y="585" type="line"/>
      <point x="441" y="598" type="line"/>
      <point x="366" y="517" type="line"/>
    </contour>
    <contour>
      <point x="557" y="512" type="line"/>
      <point x="565" y="530" type="line"/>
      <point x="452" y="600" type="line"/>
      <point x="439" y="586" type="line"/>
    </contour>
    <contour>
      <point x="431" y="458" type="line"/>
      <point x="439" y="473" type="line"/>
      <point x="374" y="522" type="line"/>
      <point x="365" y="508" type="line"/>
    </contour>
    <contour>
      <point x="409" y="101" type="line"/>
      <point x="428" y="110" type="line"/>
      <point x="361" y="292" type="line"/>
      <point x="341" y="284" type="line"/>
    </contour>
    <contour>
      <point x="322" y="434" type="line"/>
      <point x="384" y="502" type="line"/>
      <point x="369" y="515" type="line"/>
      <point x="308" y="446" type="line"/>
    </contour>
    <contour>
      <point x="246" y="213" type="line"/>
      <point x="261" y="228" type="line"/>
      <point x="130" y="315" type="line"/>
      <point x="117" y="297" type="line"/>
    </contour>
    <contour>
      <point x="257" y="212" type="line"/>
      <point x="387" y="304" type="line"/>
      <point x="376" y="318" type="line"/>
      <point x="246" y="228" type="line"/>
    </contour>
    <contour>
      <point x="424" y="355" type="line"/>
      <point x="551" y="325" type="line"/>
      <point x="555" y="346" type="line"/>
      <point x="428" y="375" type="line"/>
    </contour>
    <contour>
      <point x="377" y="302" type="line"/>
      <point x="456" y="264" type="line"/>
      <point x="464" y="281" type="line"/>
      <point x="385" y="318" type="line"/>
    </contour>
    <contour>
      <point x="224" y="450" type="line"/>
      <point x="224" y="430" type="line"/>
      <point x="322" y="430" type="line"/>
      <point x="322" y="450" type="line"/>
    </contour>
    <contour>
      <point x="244" y="450" type="line"/>
      <point x="224" y="450" type="line"/>
      <point x="224" y="359" type="line"/>
      <point x="244" y="359" type="line"/>
    </contour>
    <contour>
      <point x="114" y="504" type="line"/>
      <point x="229" y="431" type="line"/>
      <point x="241" y="446" type="line"/>
      <point x="122" y="519" type="line"/>
    </contour>
    <contour>
      <point x="224" y="379" type="line"/>
      <point x="224" y="359" type="line"/>
      <point x="322" y="359" type="line"/>
      <point x="322" y="379" type="line"/>
    </contour>
    <contour>
      <point x="442" y="473" type="line"/>
      <point x="422" y="473" type="line"/>
      <point x="422" y="361" type="line"/>
      <point x="442" y="361" type="line"/>
    </contour>
    <contour>
      <point x="350" y="428" type="line"/>
      <point x="330" y="428" type="line"/>
      <point x="330" y="382" type="line"/>
      <point x="350" y="382" type="line"/>
    </contour>
    <contour>
      <point x="124" y="309" type="line"/>
      <point x="242" y="360" type="line"/>
      <point x="235" y="378" type="line"/>
      <point x="116" y="325" type="line"/>
    </contour>
    <contour>
      <point x="310" y="373" type="line"/>
      <point x="322" y="359" type="line"/>
      <point x="348" y="378" type="line"/>
      <point x="335" y="392" type="line"/>
    </contour>
    <contour>
      <point x="310" y="436" type="line"/>
      <point x="330" y="419" type="line"/>
      <point x="348" y="429" type="line"/>
      <point x="322" y="450" type="line"/>
    </contour>
    <contour>
      <point x="410" y="126" type="line"/>
      <point x="325" y="17" type="line"/>
      <point x="342" y="9" type="line"/>
      <point x="424" y="116" type="line"/>
    </contour>
    <contour>
      <point x="561" y="11" type="line"/>
      <point x="572" y="25" type="line"/>
      <point x="425" y="118" type="line"/>
      <point x="412" y="104" type="line"/>
    </contour>
    <contour>
      <point x="306" y="366" type="line"/>
      <point x="376" y="303" type="line"/>
      <point x="387" y="314" type="line"/>
      <point x="318" y="376" type="line"/>
    </contour>
    <contour>
      <point x="338" y="413" type="line"/>
      <point x="440" y="461" type="line"/>
      <point x="430" y="477" type="line"/>
      <point x="332" y="431" type="line"/>
    </contour>
    <contour>
      <point x="342" y="394" type="line"/>
      <point x="333" y="377" type="line"/>
      <point x="428" y="354" type="line"/>
      <point x="436" y="372" type="line"/>
    </contour>
    <contour>
      <point x="120" y="497" type="line"/>
      <point x="133" y="511" type="line"/>
      <point x="34" y="588" type="line"/>
      <point x="20" y="576" type="line"/>
    </contour>
  </outline>
</glyph>
<glyph name="S" format="2">
  <advance width="441"/>
  <unicode hex="0053"/>
  <anchor x="221" y="0" name="bottom"/>
  <anchor x="221" y="600" name="top"/>
  <outline>
    <contour>
      <point x="321" y="227" type="line"/>
      <point x="331" y="242" type="line"/>
      <point x="106" y="380" type="line"/>
      <point x="96" y="364" type="line"/>
    </contour>
    <contour>
      <point x="141" y="0" type="line"/>
      <point x="151" y="15" type="line"/>
      <point x="15" y="114" type="line"/>
      <point x="5" y="99" type="line"/>
    </contour>
    <contour>
      <point x="5" y="99" type="line"/>
      <point x="25" y="99" type="line"/>
      <point x="25" y="201" type="line"/>
      <point x="5" y="201" type="line"/>
    </contour>
    <contour>
      <point x="141" y="0" type="line"/>
      <point x="283" y="0" type="line"/>
      <point x="283" y="20" type="line"/>
      <point x="141" y="20" type="line"/>
    </contour>
    <contour>
      <point x="163" y="86" type="line"/>
      <point x="173" y="102" type="line"/>
      <point x="87" y="162" type="line"/>
      <point x="77" y="145" type="line"/>
    </contour>
    <contour>
      <point x="154" y="87" type="line"/>
      <point x="172" y="81" type="line"/>
      <point x="195" y="152" type="line"/>
      <point x="177" y="158" type="line"/>
    </contour>
    <contour>
      <point x="77" y="145" type="line"/>
      <point x="97" y="145" type="line"/>
      <point x="97" y="201" type="line"/>
      <point x="77" y="201" type="line"/>
    </contour>
    <contour>
      <point x="9" y="181" type="line"/>
      <point x="163" y="181" type="line"/>
      <point x="163" y="201" type="line"/>
      <point x="9" y="201" type="line"/>
    </contour>
    <contour>
      <point x="171" y="86" type="line"/>
      <point x="241" y="86" type="line"/>
      <point x="241" y="106" type="line"/>
      <point x="171" y="106" type="line"/>
    </contour>
    <contour>
      <point x="276" y="2" type="line"/>
      <point x="293" y="11" type="line"/>
      <point x="251" y="103" type="line"/>
      <point x="233" y="94" type="line"/>
    </contour>
    <contour>
      <point x="177" y="140" type="line"/>
      <point x="188" y="157" type="line"/>
      <point x="153" y="181" type="line"/>
      <point x="142" y="166" type="line"/>
    </contour>
    <contour>
      <point x="142" y="166" type="line"/>
      <point x="163" y="166" type="line"/>
      <point x="163" y="201" type="line"/>
      <point x="142" y="201" type="line"/>
    </contour>
    <contour>
      <point x="175" y="141" type="line"/>
      <point x="206" y="141" type="line"/>
      <point x="206" y="162" type="line"/>
      <point x="175" y="162" type="line"/>
    </contour>
    <contour>
      <point x="206" y="141" type="line"/>
      <point x="230" y="161" type="line"/>
      <point x="219" y="177" type="line"/>
      <point x="195" y="158" type="line"/>
    </contour>
    <contour>
      <point x="220" y="192" type="line"/>
      <point x="232" y="208" type="line"/>
      <point x="17" y="340" type="line"/>
      <point x="5" y="324" type="line"/>
    </contour>
    <contour>
      <point x="210" y="161" type="line"/>
      <point x="230" y="161" type="line"/>
      <point x="230" y="207" type="line"/>
      <point x="210" y="207" type="line"/>
    </contour>
    <contour>
      <point x="244" y="85" type="line"/>
      <point x="327" y="150" type="line"/>
      <point x="317" y="166" type="line"/>
      <point x="233" y="101" type="line"/>
    </contour>
    <contour>
      <point x="5" y="324" type="line"/>
      <point x="25" y="324" type="line"/>
      <point x="25" y="485" type="line"/>
      <point x="5" y="485" type="line"/>
    </contour>
    <contour>
      <point x="283" y="0" type="line"/>
      <point x="436" y="122" type="line"/>
      <point x="426" y="137" type="line"/>
      <point x="272" y="16" type="line"/>
    </contour>
    <contour>
      <point x="422" y="114" type="line"/>
      <point x="429" y="133" type="line"/>
      <point x="312" y="168" type="line"/>
      <point x="307" y="149" type="line"/>
    </contour>
    <contour>
      <point x="306" y="154" type="line"/>
      <point x="326" y="154" type="line"/>
      <point x="326" y="243" type="line"/>
      <point x="306" y="243" type="line"/>
    </contour>
    <contour>
      <point x="91" y="363" type="line"/>
      <point x="111" y="363" type="line"/>
      <point x="111" y="469" type="line"/>
      <point x="91" y="469" type="line"/>
    </contour>
    <contour>
      <point x="109" y="360" type="line"/>
      <point x="224" y="404" type="line"/>
      <point x="218" y="420" type="line"/>
      <point x="103" y="377" type="line"/>
    </contour>
    <contour>
      <point x="220" y="429" type="line"/>
      <point x="223" y="446" type="line"/>
      <point x="105" y="474" type="line"/>
      <point x="101" y="457" type="line"/>
    </contour>
    <contour>
      <point x="16" y="469" type="line"/>
      <point x="163" y="584" type="line"/>
      <point x="151" y="600" type="line"/>
      <point x="5" y="485" type="line"/>
    </contour>
    <contour>
      <point x="309" y="227" type="line"/>
      <point x="428" y="273" type="line"/>
      <point x="421" y="290" type="line"/>
      <point x="302" y="244" type="line"/>
    </contour>
    <contour>
      <point x="416" y="122" type="line"/>
      <point x="436" y="122" type="line"/>
      <point x="436" y="285" type="line"/>
      <point x="416" y="284" type="line"/>
    </contour>
    <contour>
      <point x="203" y="406" type="line"/>
      <point x="223" y="406" type="line"/>
      <point x="223" y="448" type="line"/>
      <point x="203" y="448" type="line"/>
    </contour>
    <contour>
      <point x="101" y="454" type="line"/>
      <point x="201" y="529" type="line"/>
      <point x="191" y="544" type="line"/>
      <point x="91" y="469" type="line"/>
    </contour>
    <contour>
      <point x="426" y="269" type="line"/>
      <point x="436" y="285" type="line"/>
      <point x="213" y="421" type="line"/>
      <point x="203" y="405" type="line"/>
    </contour>
    <contour>
      <point x="216" y="432" type="line"/>
      <point x="241" y="452" type="line"/>
      <point x="231" y="467" type="line"/>
      <point x="205" y="447" type="line"/>
    </contour>
    <contour>
      <point x="231" y="446" type="line"/>
      <point x="261" y="446" type="line"/>
      <point x="261" y="467" type="line"/>
      <point x="231" y="467" type="line"/>
    </contour>
    <contour>
      <point x="272" y="411" type="line"/>
      <point x="292" y="411" type="line"/>
      <point x="292" y="444" type="line"/>
      <point x="272" y="444" type="line"/>
    </contour>
    <contour>
      <point x="283" y="429" type="line"/>
      <point x="294" y="444" type="line"/>
      <point x="263" y="467" type="line"/>
      <point x="252" y="452" type="line"/>
    </contour>
    <contour>
      <point x="250" y="446" type="line"/>
      <point x="270" y="446" type="line"/>
      <point x="272" y="531" type="line"/>
      <point x="252" y="531" type="line"/>
    </contour>
    <contour>
      <point x="191" y="524" type="line"/>
      <point x="266" y="524" type="line"/>
      <point x="266" y="544" type="line"/>
      <point x="191" y="544" type="line"/>
    </contour>
    <contour>
      <point x="272" y="411" type="line"/>
      <point x="416" y="411" type="line"/>
      <point x="416" y="431" type="line"/>
      <point x="272" y="431" type="line"/>
    </contour>
    <contour>
      <point x="338" y="461" type="line"/>
      <point x="350" y="477" type="line"/>
      <point x="272" y="541" type="line"/>
      <point x="260" y="525" type="line"/>
    </contour>
    <contour>
      <point x="151" y="580" type="line"/>
      <point x="284" y="580" type="line"/>
      <point x="287" y="600" type="line"/>
      <point x="151" y="600" type="line"/>
    </contour>
    <contour>
      <point x="351" y="479" type="line"/>
      <point x="359" y="463" type="line"/>
      <point x="407" y="485" type="line"/>
      <point x="400" y="501" type="line"/>
    </contour>
    <contour>
      <point x="270" y="520" type="line"/>
      <point x="293" y="589" type="line"/>
      <point x="275" y="595" type="line"/>
      <point x="251" y="526" type="line"/>
    </contour>
    <contour>
      <point x="396" y="411" type="line"/>
      <point x="416" y="411" type="line"/>
      <point x="416" y="496" type="line"/>
      <point x="396" y="493" type="line"/>
    </contour>
    <contour>
      <point x="406" y="478" type="line"/>
      <point x="416" y="496" type="line"/>
      <point x="287" y="600" type="line"/>
      <point x="274" y="585" type="line"/>
    </contour>
    <contour>
      <point x="172" y="81" type="line"/>
      <point x="154" y="87" type="line"/>
      <point x="133" y="19" type="line"/>
      <point x="150" y="13" type="line"/>
    </contour>
    <contour>
      <point x="359" y="463" type="line"/>
      <point x="351" y="479" type="line"/>
      <point x="279" y="446" type="line"/>
      <point x="286" y="430" type="line"/>
    </contour>
    <contour>
      <point x="102" y="457" type="line"/>
      <point x="105" y="474" type="line"/>
      <point x="15" y="486" type="line"/>
      <point x="11" y="469" type="line"/>
    </contour>
    <contour>
      <point x="15" y="325" type="line"/>
      <point x="108" y="360" type="line"/>
      <point x="102" y="376" type="line"/>
      <point x="9" y="342" type="line"/>
    </contour>
    <contour>
      <point x="218" y="192" type="line"/>
      <point x="311" y="228" type="line"/>
      <point x="305" y="245" type="line"/>
      <point x="212" y="210" type="line"/>
    </contour>
    <contour>
      <point x="312" y="146" type="line"/>
      <point x="317" y="164" type="line"/>
      <point x="220" y="178" type="line"/>
      <point x="215" y="159" type="line"/>
    </contour>
  </outline>
</glyph>
<glyph name="T" format="2">
  <advance width="530"/>
  <unicode hex="0054"/>
  <anchor x="265" y="0" name="bottom"/>
  <anchor x="265" y="300" name="center"/>
  <anchor x="265" y="600" name="top"/>
  <outline>
    <contour>
      <point x="158" y="0" type="line"/>
      <point x="270" y="112" type="line"/>
      <point x="257" y="125" type="line"/>
      <point x="145" y="13" type="line"/>
    </contour>
    <contour>
      <point x="145" y="0" type="line"/>
      <point x="385" y="0" type="line"/>
      <point x="385" y="20" type="line"/>
      <point x="145" y="20" type="line"/>
    </contour>
    <contour>
      <point x="145" y="0" type="line"/>
      <point x="165" y="0" type="line"/>
      <point x="165" y="380" type="line"/>
      <point x="145" y="380" type="line"/>
    </contour>
    <contour>
      <point x="372" y="0" type="line"/>
      <point x="385" y="13" type="line"/>
      <point x="273" y="125" type="line"/>
      <point x="260" y="112" type="line"/>
    </contour>
    <contour>
      <point x="6" y="366" type="line"/>
      <point x="154" y="366" type="line"/>
      <point x="154" y="386" type="line"/>
      <point x="6" y="386" type="line"/>
    </contour>
    <contour>
      <point x="25" y="372" type="line"/>
      <point x="107" y="479" type="line"/>
      <point x="94" y="493" type="line"/>
      <point x="11" y="384" type="line"/>
    </contour>
    <contour>
      <point x="5" y="366" type="line"/>
      <point x="25" y="366" type="line"/>
      <point x="25" y="600" type="line"/>
      <point x="5" y="600" type="line"/>
    </contour>
    <contour>
      <point x="255" y="110" type="line"/>
      <point x="275" y="110" type="line"/>
      <point x="275" y="481" type="line"/>
      <point x="255" y="481" type="line"/>
    </contour>
    <contour>
      <point x="365" y="0" type="line"/>
      <point x="385" y="0" type="line"/>
      <point x="385" y="380" type="line"/>
      <point x="365" y="380" type="line"/>
    </contour>
    <contour>
      <point x="94" y="479" type="line"/>
      <point x="107" y="493" type="line"/>
      <point x="25" y="600" type="line"/>
      <point x="11" y="588" type="line"/>
    </contour>
    <contour>
      <point x="158" y="365" type="line"/>
      <point x="270" y="477" type="line"/>
      <point x="257" y="490" type="line"/>
      <point x="145" y="378" type="line"/>
    </contour>
    <contour>
      <point x="371" y="365" type="line"/>
      <point x="384" y="378" type="line"/>
      <point x="272" y="490" type="line"/>
      <point x="259" y="477" type="line"/>
    </contour>
    <contour>
      <point x="93" y="477" type="line"/>
      <point x="437" y="477" type="line"/>
      <point x="437" y="497" type="line"/>
      <point x="93" y="497" type="line"/>
    </contour>
    <contour>
      <point x="376" y="366" type="line"/>
      <point x="524" y="366" type="line"/>
      <point x="524" y="386" type="line"/>
      <point x="376" y="386" type="line"/>
    </contour>
    <contour>
      <point x="6" y="580" type="line"/>
      <point x="524" y="580" type="line"/>
      <point x="524" y="600" type="line"/>
      <point x="6" y="600" type="line"/>
    </contour>
    <contour>
      <point x="507" y="372" type="line"/>
      <point x="521" y="384" type="line"/>
      <point x="438" y="493" type="line"/>
      <point x="425" y="479" type="line"/>
    </contour>
    <contour>
      <point x="505" y="366" type="line"/>
      <point x="525" y="366" type="line"/>
      <point x="525" y="600" type="line"/>
      <point x="505" y="600" type="line"/>
    </contour>
    <contour>
      <point x="438" y="479" type="line"/>
      <point x="521" y="588" type="line"/>
      <point x="507" y="600" type="line"/>
      <point x="425" y="493" type="line"/>
    </contour>
  </outline>
</glyph>
<glyph name="X" format="2">
  <advance width="589"/>
  <unicode hex="0058"/>
  <outline>
    <contour>
      <point x="562" y="0" type="line"/>
      <point x="584" y="0" type="line"/>
      <point x="408" y="345" type="line"/>
      <point x="394" y="331" type="line"/>
    </contour>
    <contour>
      <point x="22" y="0" type="line"/>
      <point x="206" y="0" type="line"/>
      <point x="206" y="20" type="line"/>
      <point x="22" y="20" type="line"/>
    </contour>
    <contour>
      <point x="42" y="5" type="line"/>
      <point x="181" y="96" type="line"/>
      <point x="168" y="109" type="line"/>
      <point x="29" y="18" type="line"/>
    </contour>
    <contour>
      <point x="28" y="0" type="line"/>
      <point x="216" y="277" type="line"/>
      <point x="201" y="289" type="line"/>
      <point x="5" y="0" type="line"/>
    </contour>
    <contour>
      <point x="195" y="4" type="line"/>
      <point x="210" y="16" type="line"/>
      <point x="177" y="111" type="line"/>
      <point x="164" y="98" type="line"/>
    </contour>
    <contour>
      <point x="207" y="0" type="line"/>
      <point x="286" y="125" type="line"/>
      <point x="275" y="144" type="line"/>
      <point x="183" y="0" type="line"/>
    </contour>
    <contour>
      <point x="327" y="0" type="line"/>
      <point x="341" y="14" type="line"/>
      <point x="245" y="216" type="line"/>
      <point x="232" y="203" type="line"/>
    </contour>
    <contour>
      <point x="333" y="5" type="line"/>
      <point x="417" y="93" type="line"/>
      <point x="404" y="108" type="line"/>
      <point x="320" y="20" type="line"/>
    </contour>
    <contour>
      <point x="176" y="86" type="line"/>
      <point x="306" y="296" type="line"/>
      <point x="292" y="310" type="line"/>
      <point x="158" y="97" type="line"/>
    </contour>
    <contour>
      <point x="327" y="0" type="line"/>
      <point x="572" y="0" type="line"/>
      <point x="572" y="20" type="line"/>
      <point x="327" y="20" type="line"/>
    </contour>
    <contour>
      <point x="202" y="271" type="line"/>
      <point x="217" y="284" type="line"/>
      <point x="38" y="600" type="line"/>
      <point x="16" y="600" type="line"/>
    </contour>
    <contour>
      <point x="557" y="5" type="line"/>
      <point x="569" y="19" type="line"/>
      <point x="410" y="108" type="line"/>
      <point x="397" y="95" type="line"/>
    </contour>
    <contour>
      <point x="211" y="272" type="line"/>
      <point x="317" y="308" type="line"/>
      <point x="304" y="321" type="line"/>
      <point x="198" y="285" type="line"/>
    </contour>
    <contour>
      <point x="402" y="86" type="line"/>
      <point x="416" y="100" type="line"/>
      <point x="304" y="320" type="line"/>
      <point x="290" y="306" type="line"/>
    </contour>
    <contour>
      <point x="299" y="289" type="line"/>
      <point x="313" y="303" type="line"/>
      <point x="185" y="518" type="line"/>
      <point x="171" y="504" type="line"/>
    </contour>
    <contour>
      <point x="180" y="499" type="line"/>
      <point x="193" y="512" type="line"/>
      <point x="49" y="589" type="line"/>
      <point x="36" y="576" type="line"/>
    </contour>
    <contour>
      <point x="303" y="300" type="line"/>
      <point x="411" y="331" type="line"/>
      <point x="398" y="344" type="line"/>
      <point x="290" y="313" type="line"/>
    </contour>
    <contour>
      <point x="27" y="580" type="line"/>
      <point x="268" y="580" type="line"/>
      <point x="268" y="600" type="line"/>
      <point x="27" y="600" type="line"/>
    </contour>
    <contour>
      <point x="182" y="500" type="line"/>
      <point x="273" y="581" type="line"/>
      <point x="260" y="594" type="line"/>
      <point x="169" y="513" type="line"/>
    </contour>
    <contour>
      <point x="309" y="303" type="line"/>
      <point x="434" y="519" type="line"/>
      <point x="420" y="533" type="line"/>
      <point x="291" y="314" type="line"/>
    </contour>
    <contour>
      <point x="258" y="373" type="line"/>
      <point x="381" y="586" type="line"/>
      <point x="368" y="600" type="line"/>
      <point x="249" y="395" type="line"/>
    </contour>
    <contour>
      <point x="307" y="487" type="line"/>
      <point x="321" y="501" type="line"/>
      <point x="268" y="600" type="line"/>
      <point x="254" y="586" type="line"/>
    </contour>
    <contour>
      <point x="411" y="332" type="line"/>
      <point x="569" y="600" type="line"/>
      <point x="546" y="600" type="line"/>
      <point x="388" y="333" type="line"/>
    </contour>
    <contour>
      <point x="421" y="515" type="line"/>
      <point x="434" y="528" type="line"/>
      <point x="381" y="594" type="line"/>
      <point x="368" y="581" type="line"/>
    </contour>
    <contour>
      <point x="429" y="516" type="line"/>
      <point x="549" y="582" type="line"/>
      <point x="536" y="595" type="line"/>
      <point x="416" y="529" type="line"/>
    </contour>
    <contour>
      <point x="368" y="580" type="line"/>
      <point x="553" y="580" type="line"/>
      <point x="553" y="600" type="line"/>
      <point x="368" y="600" type="line"/>
    </contour>
  </outline>
</glyph>
<glyph name="Y" format="2">
  <advance width="573"/>
  <unicode hex="0059"/>
  <anchor x="287" y="0" name="bottom"/>
  <anchor x="287" y="600" name="top"/>
  <anchor x="17" y="600" name="topleft"/>
  <outline>
    <contour>
      <point x="172" y="186" type="line"/>
      <point x="190" y="195" type="line"/>
      <point x="23" y="600" type="line"/>
      <point x="2" y="600" type="line"/>
    </contour>
    <contour>
      <point x="169" y="0" type="line"/>
      <point x="189" y="0" type="line"/>
      <point x="189" y="204" type="line"/>
      <point x="169" y="204" type="line"/>
    </contour>
    <contour>
      <point x="182" y="0" type="line"/>
      <point x="294" y="112" type="line"/>
      <point x="281" y="125" type="line"/>
      <point x="169" y="13" type="line"/>
    </contour>
    <contour>
      <point x="169" y="0" type="line"/>
      <point x="409" y="0" type="line"/>
      <point x="409" y="20" type="line"/>
      <point x="169" y="20" type="line"/>
    </contour>
    <contour>
      <point x="288" y="126" type="line"/>
      <point x="298" y="144" type="line"/>
      <point x="179" y="214" type="line"/>
      <point x="168" y="196" type="line"/>
    </contour>
    <contour>
      <point x="396" y="0" type="line"/>
      <point x="409" y="13" type="line"/>
      <point x="297" y="125" type="line"/>
      <point x="284" y="112" type="line"/>
    </contour>
    <contour>
      <point x="279" y="115" type="line"/>
      <point x="299" y="115" type="line"/>
      <point x="299" y="144" type="line"/>
      <point x="279" y="144" type="line"/>
    </contour>
    <contour>
      <point x="389" y="0" type="line"/>
      <point x="409" y="0" type="line"/>
      <point x="409" y="204" type="line"/>
      <point x="389" y="204" type="line"/>
    </contour>
    <contour>
      <point x="292" y="127" type="line"/>
      <point x="408" y="198" type="line"/>
      <point x="399" y="215" type="line"/>
      <point x="281" y="142" type="line"/>
    </contour>
    <contour>
      <point x="280" y="131" type="line"/>
      <point x="297" y="144" type="line"/>
      <point x="143" y="516" type="line"/>
      <point x="122" y="512" type="line"/>
    </contour>
    <contour>
      <point x="256" y="236" type="line"/>
      <point x="403" y="591" type="line"/>
      <point x="384" y="600" type="line"/>
      <point x="238" y="244" type="line"/>
    </contour>
    <contour>
      <point x="133" y="502" type="line"/>
      <point x="147" y="519" type="line"/>
      <point x="30" y="590" type="line"/>
      <point x="14" y="575" type="line"/>
    </contour>
    <contour>
      <point x="304" y="139" type="line"/>
      <point x="464" y="520" type="line"/>
      <point x="445" y="527" type="line"/>
      <point x="286" y="147" type="line"/>
    </contour>
    <contour>
      <point x="20" y="580" type="line"/>
      <point x="259" y="580" type="line"/>
      <point x="259" y="600" type="line"/>
      <point x="20" y="600" type="line"/>
    </contour>
    <contour>
      <point x="135" y="503" type="line"/>
      <point x="260" y="581" type="line"/>
      <point x="248" y="597" type="line"/>
      <point x="126" y="522" type="line"/>
    </contour>
    <contour>
      <point x="310" y="405" type="line"/>
      <point x="329" y="413" type="line"/>
      <point x="259" y="600" type="line"/>
      <point x="240" y="591" type="line"/>
    </contour>
    <contour>
      <point x="406" y="187" type="line"/>
      <point x="571" y="600" type="line"/>
      <point x="551" y="600" type="line"/>
      <point x="387" y="195" type="line"/>
    </contour>
    <contour>
      <point x="450" y="505" type="line"/>
      <point x="463" y="522" type="line"/>
      <point x="391" y="592" type="line"/>
      <point x="377" y="577" type="line"/>
    </contour>
    <contour>
      <point x="456" y="510" type="line"/>
      <point x="559" y="576" type="line"/>
      <point x="548" y="592" type="line"/>
      <point x="450" y="530" type="line"/>
    </contour>
    <contour>
      <point x="384" y="580" type="line"/>
      <point x="562" y="580" type="line"/>
      <point x="562" y="600" type="line"/>
      <point x="384" y="600" type="line"/>
    </contour>
  </outline>
</glyph>
<glyph name="Z" format="2">
  <advance width="568"/>
  <unicode hex="005A"/>
  <anchor x="284" y="0" name="bottom"/>
  <anchor x="284" y="300" name="center"/>
  <anchor x="284" y="600" name="top"/>
  <outline>
    <contour>
      <point x="8" y="20" type="line"/>
      <point x="560" y="20" type="line"/>
    </contour>
    <contour>
      <point x="563" y="0" type="line"/>
      <point x="563" y="238" type="line"/>
      <point x="543" y="238" type="line"/>
      <point x="543" y="0" type="line"/>
    </contour>
    <contour>
      <point x="346" y="222" type="line"/>
      <point x="563" y="222" type="line"/>
      <point x="563" y="241" type="line"/>
      <point x="353" y="241" type="line"/>
    </contour>
    <contour>
      <point x="435" y="124" type="line"/>
      <point x="559" y="225" type="line"/>
      <point x="547" y="240" type="line"/>
      <point x="421" y="138" type="line"/>
    </contour>
    <contour>
      <point x="537" y="13" type="line"/>
      <point x="551" y="27" type="line"/>
      <point x="440" y="142" type="line"/>
      <point x="425" y="128" type="line"/>
    </contour>
    <contour>
      <point x="182" y="125" type="line"/>
      <point x="445" y="125" type="line"/>
      <point x="445" y="145" type="line"/>
      <point x="182" y="145" type="line"/>
    </contour>
    <contour>
      <point x="193" y="130" type="line"/>
      <point x="368" y="227" type="line"/>
      <point x="357" y="243" type="line"/>
      <point x="183" y="146" type="line"/>
    </contour>
    <contour>
      <point x="28" y="7" type="line"/>
      <point x="210" y="139" type="line"/>
      <point x="197" y="157" type="line"/>
      <point x="15" y="24" type="line"/>
    </contour>
    <contour>
      <point x="19" y="0" type="line"/>
      <point x="208" y="371" type="line"/>
      <point x="186" y="372" type="line"/>
      <point x="-3" y="0" type="line"/>
    </contour>
    <contour>
      <point x="5" y="580" type="line"/>
      <point x="545" y="580" type="line"/>
      <point x="545" y="600" type="line"/>
      <point x="5" y="600" type="line"/>
    </contour>
    <contour>
      <point x="3" y="0" type="line"/>
      <point x="560" y="0" type="line"/>
      <point x="560" y="20" type="line"/>
      <point x="10" y="20" type="line"/>
    </contour>
    <contour>
      <point x="364" y="224" type="line"/>
      <point x="558" y="600" type="line"/>
      <point x="538" y="600" type="line"/>
      <point x="346" y="232" type="line"/>
    </contour>
    <contour>
      <point x="25" y="365" type="line"/>
      <point x="25" y="600" type="line"/>
      <point x="5" y="600" type="line"/>
      <point x="5" y="365" type="line"/>
    </contour>
    <contour>
      <point x="10" y="365" type="line"/>
      <point x="200" y="365" type="line"/>
      <point x="200" y="382" type="line"/>
      <point x="10" y="382" type="line"/>
    </contour>
    <contour>
      <point x="200" y="360" type="line"/>
      <point x="358" y="479" type="line"/>
      <point x="348" y="494" type="line"/>
      <point x="185" y="374" type="line"/>
    </contour>
    <contour>
      <point x="120" y="479" type="line"/>
      <point x="361" y="479" type="line"/>
      <point x="361" y="499" type="line"/>
      <point x="120" y="499" type="line"/>
    </contour>
    <contour>
      <point x="24" y="365" type="line"/>
      <point x="136" y="490" type="line"/>
      <point x="120" y="498" type="line"/>
      <point x="9" y="375" type="line"/>
    </contour>
    <contour>
      <point x="199" y="135" type="line"/>
      <point x="376" y="493" type="line"/>
      <point x="355" y="498" type="line"/>
      <point x="183" y="146" type="line"/>
    </contour>
    <contour>
      <point x="360" y="478" type="line"/>
      <point x="545" y="580" type="line"/>
      <point x="535" y="600" type="line"/>
      <point x="349" y="495" type="line"/>
    </contour>
    <contour>
      <point x="120" y="478" type="line"/>
      <point x="134" y="491" type="line"/>
      <point x="18" y="596" type="line"/>
      <point x="5" y="584" type="line"/>
    </contour>
  </outline>
</glyph>
<glyph name="exclamdown" format="2">
  <advance width="240"/>
  <unicode hex="00A1"/>
  <outline>
    <contour>
      <point x="10" y="0" type="line"/>
      <point x="30" y="0" type="line"/>
      <point x="95" y="410" type="line"/>
      <point x="75" y="410" type="line"/>
    </contour>
    <contour>
      <point x="31" y="5" type="line"/>
      <point x="125" y="89" type="line"/>
      <point x="112" y="104" type="line"/>
      <point x="18" y="20" type="line"/>
    </contour>
    <contour>
      <point x="19" y="0" type="line"/>
      <point x="220" y="0" type="line"/>
      <point x="220" y="20" type="line"/>
      <point x="19" y="20" type="line"/>
    </contour>
    <contour>
      <point x="208" y="5" type="line"/>
      <point x="221" y="20" type="line"/>
      <point x="127" y="104" type="line"/>
      <point x="114" y="89" type="line"/>
    </contour>
    <contour>
      <point x="110" y="87" type="line"/>
      <point x="130" y="87" type="line"/>
      <point x="130" y="400" type="line"/>
      <point x="110" y="400" type="line"/>
    </contour>
    <contour>
      <point x="210" y="0" type="line"/>
      <point x="230" y="0" type="line"/>
      <point x="166" y="410" type="line"/>
      <point x="146" y="410" type="line"/>
    </contour>
    <contour>
      <point x="75" y="390" type="line"/>
      <point x="166" y="390" type="line"/>
      <point x="166" y="410" type="line"/>
      <point x="75" y="410" type="line"/>
    </contour>
    <contour>
      <point x="51" y="435" type="line"/>
      <point x="123" y="504" type="line"/>
      <point x="114" y="524" type="line"/>
      <point x="37" y="449" type="line"/>
    </contour>
    <contour>
      <point x="37" y="435" type="line"/>
      <point x="57" y="435" type="line"/>
      <point x="57" y="600" type="line"/>
      <point x="37" y="600" type="line"/>
    </contour>
    <contour>
      <point x="40" y="435" type="line"/>
      <point x="202" y="435" type="line"/>
      <point x="202" y="453" type="line"/>
      <point x="40" y="453" type="line"/>
    </contour>
    <contour>
      <point x="113" y="511" type="line"/>
      <point x="122" y="531" type="line"/>
      <point x="51" y="600" type="line"/>
      <point x="37" y="586" type="line"/>
    </contour>
    <contour>
      <point x="187" y="435" type="line"/>
      <point x="201" y="449" type="line"/>
      <point x="125" y="524" type="line"/>
      <point x="116" y="504" type="line"/>
    </contour>
    <contour>
      <point x="113" y="509" type="line"/>
      <point x="126" y="509" type="line"/>
      <point x="126" y="526" type="line"/>
      <point x="113" y="526" type="line"/>
    </contour>
    <contour>
      <point x="182" y="435" type="line"/>
      <point x="202" y="435" type="line"/>
      <point x="202" y="600" type="line"/>
      <point x="182" y="600" type="line"/>
    </contour>
    <contour>
      <point x="37" y="582" type="line"/>
      <point x="202" y="582" type="line"/>
      <point x="202" y="600" type="line"/>
      <point x="37" y="600" type="line"/>
    </contour>
    <contour>
      <point x="125" y="510" type="line"/>
      <point x="202" y="586" type="line"/>
      <point x="188" y="600" type="line"/>
      <point x="116" y="530" type="line"/>
    </contour>
  </outline>
</glyph>
<glyph name="periodcentered" format="2">
  <advance width="224"/>
  <unicode hex="00B7"/>
  <outline>
    <contour>
      <point x="15" y="213" type="line"/>
      <point x="209" y="213" type="line"/>
      <point x="209" y="232" type="line"/>
      <point x="15" y="232" type="line"/>
    </contour>
    <contour>
      <point x="30" y="213" type="line"/>
      <point x="116" y="299" type="line"/>
      <point x="104" y="317" type="line"/>
      <point x="15" y="228" type="line"/>
    </contour>
    <contour>
      <point x="194" y="213" type="line"/>
      <point x="209" y="228" type="line"/>
      <point x="119" y="318" type="line"/>
      <point x="107" y="300" type="line"/>
    </contour>
    <contour>
      <point x="15" y="213" type="line"/>
      <point x="34" y="213" type="line"/>
      <point x="34" y="407" type="line"/>
      <point x="15" y="407" type="line"/>
    </contour>
    <contour>
      <point x="104" y="302" type="line"/>
      <point x="120" y="302" type="line"/>
      <point x="120" y="318" type="line"/>
      <point x="104" y="318" type="line"/>
    </contour>
    <contour>
      <point x="190" y="213" type="line"/>
      <point x="209" y="213" type="line"/>
      <point x="209" y="407" type="line"/>
      <point x="190" y="407" type="line"/>
    </contour>
    <contour>
      <point x="105" y="303" type="line"/>
      <point x="117" y="321" type="line"/>
      <point x="30" y="407" type="line"/>
      <point x="15" y="392" type="line"/>
    </contour>
    <contour>
      <point x="19" y="388" type="line"/>
      <point x="209" y="388" type="line"/>
      <point x="209" y="407" type="line"/>
      <point x="19" y="407" type="line"/>
    </contour>
    <contour>
      <point x="119" y="303" type="line"/>
      <point x="208" y="392" type="line"/>
      <point x="193" y="407" type="line"/>
      <point x="107" y="321" type="line"/>
    </contour>
  </outline>
</glyph>
<glyph name="AE" format="2">
  <advance width="761"/>
  <unicode hex="00C6"/>
  <anchor x="381" y="0" name="bottom"/>
  <anchor x="444" y="600" name="top"/>
  <outline>
    <contour>
      <point x="5" y="0" type="line"/>
      <point x="25" y="0" type="line"/>
      <point x="218" y="595" type="line"/>
      <point x="199" y="600" type="line"/>
    </contour>
    <contour>
      <point x="11" y="0" type="line"/>
      <point x="195" y="0" type="line"/>
      <point x="195" y="20" type="line"/>
      <point x="11" y="20" type="line"/>
    </contour>
    <contour>
      <point x="26" y="1" type="line"/>
      <point x="120" y="80" type="line"/>
      <point x="105" y="93" type="line"/>
      <point x="12" y="15" type="line"/>
    </contour>
    <contour>
      <point x="184" y="1" type="line"/>
      <point x="198" y="15" type="line"/>
      <point x="125" y="93" type="line"/>
      <point x="110" y="80" type="line"/>
    </contour>
    <contour>
      <point x="195" y="0" type="line"/>
      <point x="219" y="91" type="line"/>
      <point x="200" y="96" type="line"/>
      <point x="176" y="5" type="line"/>
    </contour>
    <contour>
      <point x="204" y="80" type="line"/>
      <point x="218" y="94" type="line"/>
      <point x="154" y="172" type="line"/>
      <point x="139" y="159" type="line"/>
    </contour>
    <contour>
      <point x="207" y="80" type="line"/>
      <point x="312" y="80" type="line"/>
      <point x="312" y="100" type="line"/>
      <point x="207" y="100" type="line"/>
    </contour>
    <contour>
      <point x="296" y="0" type="line"/>
      <point x="316" y="0" type="line"/>
      <point x="316" y="94" type="line"/>
      <point x="296" y="94" type="line"/>
    </contour>
    <contour>
      <point x="146" y="158" type="line"/>
      <point x="261" y="200" type="line"/>
      <point x="253" y="218" type="line"/>
      <point x="138" y="176" type="line"/>
    </contour>
    <contour>
      <point x="309" y="0" type="line"/>
      <point x="421" y="89" type="line"/>
      <point x="408" y="102" type="line"/>
      <point x="296" y="13" type="line"/>
    </contour>
    <contour>
      <point x="150" y="162" type="line"/>
      <point x="411" y="162" type="line"/>
      <point x="411" y="182" type="line"/>
      <point x="150" y="182" type="line"/>
    </contour>
    <contour>
      <point x="310" y="80" type="line"/>
      <point x="421" y="161" type="line"/>
      <point x="405" y="174" type="line"/>
      <point x="296" y="94" type="line"/>
    </contour>
    <contour>
      <point x="253" y="198" type="line"/>
      <point x="306" y="198" type="line"/>
      <point x="306" y="218" type="line"/>
      <point x="253" y="218" type="line"/>
    </contour>
    <contour>
      <point x="121" y="80" type="line"/>
      <point x="276" y="538" type="line"/>
      <point x="257" y="543" type="line"/>
      <point x="102" y="85" type="line"/>
    </contour>
    <contour>
      <point x="306" y="0" type="line"/>
      <point x="746" y="0" type="line"/>
      <point x="746" y="20" type="line"/>
      <point x="306" y="20" type="line"/>
    </contour>
    <contour>
      <point x="407" y="168" type="line"/>
      <point x="416" y="186" type="line"/>
      <point x="306" y="218" type="line"/>
      <point x="297" y="200" type="line"/>
    </contour>
    <contour>
      <point x="316" y="204" type="line"/>
      <point x="316" y="401" type="line"/>
      <point x="296" y="385" type="line"/>
      <point x="296" y="205" type="line"/>
    </contour>
    <contour>
      <point x="427" y="95" type="line"/>
      <point x="535" y="165" type="line"/>
      <point x="522" y="180" type="line"/>
      <point x="412" y="106" type="line"/>
    </contour>
    <contour>
      <point x="412" y="87" type="line"/>
      <point x="636" y="87" type="line"/>
      <point x="636" y="107" type="line"/>
      <point x="412" y="107" type="line"/>
    </contour>
    <contour>
      <point x="255" y="200" type="line"/>
      <point x="375" y="595" type="line"/>
      <point x="356" y="600" type="line"/>
      <point x="236" y="206" type="line"/>
    </contour>
    <contour>
      <point x="406" y="97" type="line"/>
      <point x="426" y="97" type="line"/>
      <point x="426" y="521" type="line"/>
      <point x="406" y="521" type="line"/>
    </contour>
    <contour>
      <point x="516" y="172" type="line"/>
      <point x="536" y="172" type="line"/>
      <point x="536" y="238" type="line"/>
      <point x="516" y="238" type="line"/>
    </contour>
    <contour>
      <point x="736" y="10" type="line"/>
      <point x="749" y="22" type="line"/>
      <point x="631" y="107" type="line"/>
      <point x="616" y="96" type="line"/>
    </contour>
    <contour>
      <point x="526" y="223" type="line"/>
      <point x="539" y="237" type="line"/>
      <point x="427" y="327" type="line"/>
      <point x="412" y="314" type="line"/>
    </contour>
    <contour>
      <point x="257" y="524" type="line"/>
      <point x="274" y="534" type="line"/>
      <point x="215" y="597" type="line"/>
      <point x="197" y="588" type="line"/>
    </contour>
    <contour>
      <point x="422" y="307" type="line"/>
      <point x="546" y="307" type="line"/>
      <point x="546" y="327" type="line"/>
      <point x="422" y="327" type="line"/>
    </contour>
    <contour>
      <point x="522" y="160" type="line"/>
      <point x="746" y="160" type="line"/>
      <point x="746" y="180" type="line"/>
      <point x="522" y="180" type="line"/>
    </contour>
    <contour>
      <point x="424" y="311" type="line"/>
      <point x="539" y="370" type="line"/>
      <point x="526" y="385" type="line"/>
      <point x="413" y="326" type="line"/>
    </contour>
    <contour>
      <point x="269" y="524" type="line"/>
      <point x="366" y="584" type="line"/>
      <point x="351" y="600" type="line"/>
      <point x="262" y="543" type="line"/>
    </contour>
    <contour>
      <point x="633" y="87" type="line"/>
      <point x="749" y="165" type="line"/>
      <point x="736" y="180" type="line"/>
      <point x="616" y="96" type="line"/>
    </contour>
    <contour>
      <point x="526" y="225" type="line"/>
      <point x="656" y="225" type="line"/>
      <point x="656" y="245" type="line"/>
      <point x="526" y="245" type="line"/>
    </contour>
    <contour>
      <point x="199" y="580" type="line"/>
      <point x="385" y="580" type="line"/>
      <point x="385" y="600" type="line"/>
      <point x="199" y="600" type="line"/>
    </contour>
    <contour>
      <point x="646" y="225" type="line"/>
      <point x="659" y="237" type="line"/>
      <point x="541" y="327" type="line"/>
      <point x="526" y="316" type="line"/>
    </contour>
    <contour>
      <point x="736" y="0" type="line"/>
      <point x="756" y="0" type="line"/>
      <point x="756" y="180" type="line"/>
      <point x="736" y="180" type="line"/>
    </contour>
    <contour>
      <point x="522" y="420" type="line"/>
      <point x="535" y="435" type="line"/>
      <point x="427" y="515" type="line"/>
      <point x="412" y="504" type="line"/>
    </contour>
    <contour>
      <point x="516" y="365" type="line"/>
      <point x="536" y="365" type="line"/>
      <point x="536" y="440" type="line"/>
      <point x="516" y="440" type="line"/>
    </contour>
    <contour>
      <point x="408" y="506" type="line"/>
      <point x="421" y="519" type="line"/>
      <point x="375" y="595" type="line"/>
      <point x="362" y="582" type="line"/>
    </contour>
    <contour>
      <point x="543" y="307" type="line"/>
      <point x="659" y="370" type="line"/>
      <point x="646" y="385" type="line"/>
      <point x="526" y="316" type="line"/>
    </contour>
    <contour>
      <point x="646" y="225" type="line"/>
      <point x="666" y="225" type="line"/>
      <point x="666" y="385" type="line"/>
      <point x="646" y="385" type="line"/>
    </contour>
    <contour>
      <point x="516" y="365" type="line"/>
      <point x="666" y="365" type="line"/>
      <point x="666" y="385" type="line"/>
      <point x="516" y="385" type="line"/>
    </contour>
    <contour>
      <point x="412" y="503" type="line"/>
      <point x="636" y="503" type="line"/>
      <point x="636" y="523" type="line"/>
      <point x="412" y="523" type="line"/>
    </contour>
    <contour>
      <point x="516" y="420" type="line"/>
      <point x="746" y="420" type="line"/>
      <point x="746" y="440" type="line"/>
      <point x="516" y="440" type="line"/>
    </contour>
    <contour>
      <point x="336" y="580" type="line"/>
      <point x="746" y="580" type="line"/>
      <point x="746" y="600" type="line"/>
      <point x="336" y="600" type="line"/>
    </contour>
    <contour>
      <point x="736" y="427" type="line"/>
      <point x="749" y="442" type="line"/>
      <point x="633" y="523" type="line"/>
      <point x="615" y="514" type="line"/>
    </contour>
    <contour>
      <point x="630" y="506" type="line"/>
      <point x="749" y="580" type="line"/>
      <point x="732" y="593" type="line"/>
      <point x="615" y="520" type="line"/>
    </contour>
    <contour>
      <point x="736" y="420" type="line"/>
      <point x="756" y="420" type="line"/>
      <point x="756" y="600" type="line"/>
      <point x="736" y="600" type="line"/>
    </contour>
  </outline>
</glyph>
